<?xml version="1.0" encoding="UTF-8" standalone="no"?><svg xmlns="http://www.w3.org/2000/svg" xmlns:xlink="http://www.w3.org/1999/xlink" contentScriptType="application/ecmascript" contentStyleType="text/css" height="1009px" preserveAspectRatio="none" style="width:3800px;height:1009px;background:#FFFFFF;" version="1.1" viewBox="0 0 3800 1009" width="3800px" zoomAndPan="magnify"><defs><filter height="300%" id="f6pv3onahqfj6" width="300%" x="-1" y="-1"><feGaussianBlur result="blurOut" stdDeviation="2.0"/><feColorMatrix in="blurOut" result="blurOut2" type="matrix" values="0 0 0 0 0 0 0 0 0 0 0 0 0 0 0 0 0 0 .4 0"/><feOffset dx="4.0" dy="4.0" in="blurOut2" result="blurOut3"/><feBlend in="SourceGraphic" in2="blurOut3" mode="normal"/></filter></defs><g><text fill="#000000" font-family="sans-serif" font-size="18" lengthAdjust="spacing" textLength="154" x="1816.5" y="18.6855">Coffee Shop Model</text><!--MD5=[861f2356a796e84983ee1daa1a607846]
cluster shared_kernel--><polygon fill="#FFFFFF" filter="url(#f6pv3onahqfj6)" points="1796,31.6406,1904,31.6406,1911,55.25,2644,55.25,2644,420.6406,1796,420.6406,1796,31.6406" style="stroke:#000000;stroke-width:1.5;"/><line style="stroke:#000000;stroke-width:1.5;" x1="1796" x2="1911" y1="55.25" y2="55.25"/><text fill="#000000" font-family="sans-serif" font-size="14" font-weight="bold" lengthAdjust="spacing" textLength="102" x="1800" y="48.1738">shared_kernel</text><!--MD5=[e9467d9b91a37903b06cf4fbf2352c88]
cluster ordering--><polygon fill="#FFFFFF" filter="url(#f6pv3onahqfj6)" points="16,28.6406,83,28.6406,90,52.25,886,52.25,886,1002.6406,16,1002.6406,16,28.6406" style="stroke:#000000;stroke-width:1.5;"/><line style="stroke:#000000;stroke-width:1.5;" x1="16" x2="90" y1="52.25" y2="52.25"/><text fill="#000000" font-family="sans-serif" font-size="14" font-weight="bold" lengthAdjust="spacing" textLength="61" x="20" y="45.1738">ordering</text><!--MD5=[9496b5050aed6bf925720072b82e4c4a]
cluster kitchen--><polygon fill="#FFFFFF" filter="url(#f6pv3onahqfj6)" points="910,265.1406,968,265.1406,975,288.75,1772,288.75,1772,1002.6406,910,1002.6406,910,265.1406" style="stroke:#000000;stroke-width:1.5;"/><line style="stroke:#000000;stroke-width:1.5;" x1="910" x2="975" y1="288.75" y2="288.75"/><text fill="#000000" font-family="sans-serif" font-size="14" font-weight="bold" lengthAdjust="spacing" textLength="52" x="914" y="281.6738">kitchen</text><!--MD5=[2766a367a4a8c35b562b373df6255952]
cluster payment--><polygon fill="#D3D3D3" filter="url(#f6pv3onahqfj6)" points="2668,81.1406,2733,81.1406,2740,104.75,2830,104.75,2830,159.1406,2668,159.1406,2668,81.1406" style="stroke:#000000;stroke-width:1.5;"/><line style="stroke:#000000;stroke-width:1.5;" x1="2668" x2="2740" y1="104.75" y2="104.75"/><text fill="#000000" font-family="sans-serif" font-size="14" font-weight="bold" lengthAdjust="spacing" textLength="59" x="2672" y="97.6738">payment</text><!--MD5=[6a78d1cb5482b9790f5a9c0df9608706]
cluster inventory--><polygon fill="#D3D3D3" filter="url(#f6pv3onahqfj6)" points="2854,81.1406,2927,81.1406,2934,104.75,3016,104.75,3016,159.1406,2854,159.1406,2854,81.1406" style="stroke:#000000;stroke-width:1.5;"/><line style="stroke:#000000;stroke-width:1.5;" x1="2854" x2="2934" y1="104.75" y2="104.75"/><text fill="#000000" font-family="sans-serif" font-size="14" font-weight="bold" lengthAdjust="spacing" textLength="67" x="2858" y="97.6738">inventory</text><!--MD5=[6fcb2b9e2c7c08dc714d97ecbc713d94]
cluster suppliers--><polygon fill="#D3D3D3" filter="url(#f6pv3onahqfj6)" points="3040,81.1406,3112,81.1406,3119,104.75,3202,104.75,3202,159.1406,3040,159.1406,3040,81.1406" style="stroke:#000000;stroke-width:1.5;"/><line style="stroke:#000000;stroke-width:1.5;" x1="3040" x2="3119" y1="104.75" y2="104.75"/><text fill="#000000" font-family="sans-serif" font-size="14" font-weight="bold" lengthAdjust="spacing" textLength="66" x="3044" y="97.6738">suppliers</text><!--MD5=[80e28289e133c70696db0e58b2d8b981]
cluster workforce_management--><polygon fill="#D3D3D3" filter="url(#f6pv3onahqfj6)" points="3226,81.1406,3401,81.1406,3408,104.75,3411,104.75,3411,159.1406,3226,159.1406,3226,81.1406" style="stroke:#000000;stroke-width:1.5;"/><line style="stroke:#000000;stroke-width:1.5;" x1="3226" x2="3408" y1="104.75" y2="104.75"/><text fill="#000000" font-family="sans-serif" font-size="14" font-weight="bold" lengthAdjust="spacing" textLength="169" x="3230" y="97.6738">workforce_management</text><!--MD5=[db72b53df8fd5a29a24df311849e29cc]
cluster accounting--><polygon fill="#D3D3D3" filter="url(#f6pv3onahqfj6)" points="3435,81.1406,3519,81.1406,3526,104.75,3597,104.75,3597,159.1406,3435,159.1406,3435,81.1406" style="stroke:#000000;stroke-width:1.5;"/><line style="stroke:#000000;stroke-width:1.5;" x1="3435" x2="3526" y1="104.75" y2="104.75"/><text fill="#000000" font-family="sans-serif" font-size="14" font-weight="bold" lengthAdjust="spacing" textLength="78" x="3439" y="97.6738">accounting</text><!--MD5=[c9a90633f6fa270d36395c8924bf7cd1]
cluster marketing--><polygon fill="#D3D3D3" filter="url(#f6pv3onahqfj6)" points="3621,81.1406,3697,81.1406,3704,104.75,3783,104.75,3783,159.1406,3621,159.1406,3621,81.1406" style="stroke:#000000;stroke-width:1.5;"/><line style="stroke:#000000;stroke-width:1.5;" x1="3621" x2="3704" y1="104.75" y2="104.75"/><text fill="#000000" font-family="sans-serif" font-size="14" font-weight="bold" lengthAdjust="spacing" textLength="70" x="3625" y="97.6738">marketing</text><!--MD5=[d6ab91e9aaae079e673191694cd11c61]
class shared_kernel.UbiquitousLanguage--><rect codeLine="6" fill="#FFFFFF" filter="url(#f6pv3onahqfj6)" height="75.6719" id="shared_kernel.UbiquitousLanguage" style="stroke:#A80036;stroke-width:1.5;" width="294" x="2121" y="92.1406"/><ellipse cx="2205.75" cy="108.1406" fill="#EB937F" rx="11" ry="11" style="stroke:#A80036;stroke-width:1.0;"/><path d="M2204.6094,108.9375 L2204.6094,111.4375 L2208.9375,111.4375 L2208.9375,110.5156 Q2208.9375,109.9063 2209.1719,109.6406 Q2209.4219,109.375 2209.7969,109.375 Q2210.1719,109.375 2210.4063,109.6406 Q2210.6406,109.9063 2210.6406,110.5156 L2210.6406,113.1406 L2202.6406,113.1406 Q2202.0156,113.1406 2201.75,112.9063 Q2201.5,112.6719 2201.5,112.2813 Q2201.5,111.9063 2201.7656,111.6719 Q2202.0313,111.4375 2202.6406,111.4375 L2202.9063,111.4375 L2202.9063,104.7813 L2202.6406,104.7813 Q2202.0156,104.7813 2201.75,104.5469 Q2201.5,104.3125 2201.5,103.9219 Q2201.5,103.5469 2201.75,103.3125 Q2202.0156,103.0781 2202.6406,103.0781 L2210.2656,103.0781 L2210.2656,105.6719 Q2210.2656,106.2813 2210.0313,106.5469 Q2209.8125,106.7969 2209.4219,106.7969 Q2209.0469,106.7969 2208.8125,106.5469 Q2208.5781,106.2813 2208.5781,105.6719 L2208.5781,104.7813 L2204.6094,104.7813 L2204.6094,107.2344 L2206.0938,107.2344 Q2206.0938,106.5781 2206.2188,106.3906 Q2206.4844,105.9844 2206.9531,105.9844 Q2207.3281,105.9844 2207.5625,106.25 Q2207.7969,106.5 2207.7969,107.1094 L2207.7969,109.0781 Q2207.7969,109.625 2207.6719,109.8125 Q2207.4063,110.2031 2206.9531,110.2031 Q2206.4844,110.2031 2206.2188,109.7969 Q2206.0938,109.6094 2206.0938,108.9375 L2204.6094,108.9375 Z " fill="#000000"/><text fill="#000000" font-family="sans-serif" font-size="12" lengthAdjust="spacing" textLength="116" x="2226.25" y="113.0508">UbiquitousLanguage</text><line style="stroke:#A80036;stroke-width:1.5;" x1="2122" x2="2414" y1="124.1406" y2="124.1406"/><text fill="#000000" font-family="sans-serif" font-size="11" lengthAdjust="spacing" textLength="282" x="2127" y="139.5596">Size: a physical amount of something in MeasurementUnits</text><text fill="#000000" font-family="sans-serif" font-size="11" lengthAdjust="spacing" textLength="241" x="2127" y="153.3955">CurrencyValue: some amount of a given currency</text><line style="stroke:#A80036;stroke-width:1.5;" x1="2122" x2="2414" y1="159.8125" y2="159.8125"/><!--MD5=[01057ad8fe932c80e36e5bee310c1c3a]
class shared_kernel.Size--><rect codeLine="11" fill="#FEFECE" filter="url(#f6pv3onahqfj6)" height="61.8359" id="shared_kernel.Size" style="stroke:#A80036;stroke-width:1.5;" width="119" x="1966.5" y="99.1406"/><ellipse cx="2010.3" cy="115.1406" fill="#ADD1B2" rx="11" ry="11" style="stroke:#A80036;stroke-width:1.0;"/><path d="M2013.0656,111.0156 Q2013.2219,110.7969 2013.4094,110.6875 Q2013.5969,110.5781 2013.8156,110.5781 Q2014.1906,110.5781 2014.425,110.8438 Q2014.6594,111.0938 2014.6594,111.7031 L2014.6594,113.1563 Q2014.6594,113.7656 2014.425,114.0313 Q2014.1906,114.2969 2013.8156,114.2969 Q2013.4719,114.2969 2013.2688,114.0938 Q2013.0656,113.9063 2012.9563,113.3906 Q2012.9094,113.0313 2012.7219,112.8438 Q2012.3938,112.4688 2011.7844,112.25 Q2011.175,112.0313 2010.55,112.0313 Q2009.7844,112.0313 2009.1438,112.3594 Q2008.5188,112.6875 2008.0188,113.4375 Q2007.5344,114.1875 2007.5344,115.2188 L2007.5344,116.3125 Q2007.5344,117.5469 2008.425,118.375 Q2009.3156,119.1875 2010.9094,119.1875 Q2011.8469,119.1875 2012.5031,118.9375 Q2012.8938,118.7813 2013.3156,118.3438 Q2013.5813,118.0781 2013.7219,118 Q2013.8781,117.9219 2014.0813,117.9219 Q2014.4094,117.9219 2014.6594,118.1875 Q2014.925,118.4375 2014.925,118.7813 Q2014.925,119.125 2014.5813,119.5313 Q2014.0813,120.1094 2013.2844,120.4375 Q2012.2063,120.8906 2010.9094,120.8906 Q2009.3938,120.8906 2008.1906,120.2656 Q2007.2063,119.7656 2006.5188,118.7031 Q2005.8313,117.625 2005.8313,116.3438 L2005.8313,115.1875 Q2005.8313,113.8594 2006.4406,112.7188 Q2007.0656,111.5625 2008.1594,110.9531 Q2009.2531,110.3281 2010.4875,110.3281 Q2011.2219,110.3281 2011.8625,110.5 Q2012.5188,110.6563 2013.0656,111.0156 Z " fill="#000000"/><text fill="#000000" font-family="sans-serif" font-size="12" lengthAdjust="spacing" textLength="23" x="2030.7" y="120.0508">Size</text><line style="stroke:#A80036;stroke-width:1.5;" x1="1967.5" x2="2084.5" y1="131.1406" y2="131.1406"/><ellipse cx="1977.5" cy="142.1406" rx="3" ry="3" style="stroke:#038048;stroke-width:1.0;fill:none;"/><text fill="#000000" font-family="sans-serif" font-size="11" lengthAdjust="spacing" textLength="93" x="1986.5" y="146.5596">quanity: BigDecimal</text><line style="stroke:#A80036;stroke-width:1.5;" x1="1967.5" x2="2084.5" y1="152.9766" y2="152.9766"/><!--MD5=[6e1575485b2088a38d58a42caca1a3c8]
class shared_kernel.MeasurementUnit--><rect codeLine="16" fill="#FEFECE" filter="url(#f6pv3onahqfj6)" height="117.1797" id="shared_kernel.MeasurementUnit" style="stroke:#A80036;stroke-width:1.5;" width="130" x="1961" y="287.6406"/><ellipse cx="1976" cy="303.6406" fill="#EB937F" rx="11" ry="11" style="stroke:#A80036;stroke-width:1.0;"/><path d="M1974.8594,304.4375 L1974.8594,306.9375 L1979.1875,306.9375 L1979.1875,306.0156 Q1979.1875,305.4063 1979.4219,305.1406 Q1979.6719,304.875 1980.0469,304.875 Q1980.4219,304.875 1980.6563,305.1406 Q1980.8906,305.4063 1980.8906,306.0156 L1980.8906,308.6406 L1972.8906,308.6406 Q1972.2656,308.6406 1972,308.4063 Q1971.75,308.1719 1971.75,307.7813 Q1971.75,307.4063 1972.0156,307.1719 Q1972.2813,306.9375 1972.8906,306.9375 L1973.1563,306.9375 L1973.1563,300.2813 L1972.8906,300.2813 Q1972.2656,300.2813 1972,300.0469 Q1971.75,299.8125 1971.75,299.4219 Q1971.75,299.0469 1972,298.8125 Q1972.2656,298.5781 1972.8906,298.5781 L1980.5156,298.5781 L1980.5156,301.1719 Q1980.5156,301.7813 1980.2813,302.0469 Q1980.0625,302.2969 1979.6719,302.2969 Q1979.2969,302.2969 1979.0625,302.0469 Q1978.8281,301.7813 1978.8281,301.1719 L1978.8281,300.2813 L1974.8594,300.2813 L1974.8594,302.7344 L1976.3438,302.7344 Q1976.3438,302.0781 1976.4688,301.8906 Q1976.7344,301.4844 1977.2031,301.4844 Q1977.5781,301.4844 1977.8125,301.75 Q1978.0469,302 1978.0469,302.6094 L1978.0469,304.5781 Q1978.0469,305.125 1977.9219,305.3125 Q1977.6563,305.7031 1977.2031,305.7031 Q1976.7344,305.7031 1976.4688,305.2969 Q1976.3438,305.1094 1976.3438,304.4375 L1974.8594,304.4375 Z " fill="#000000"/><text fill="#000000" font-family="sans-serif" font-size="12" lengthAdjust="spacing" textLength="98" x="1990" y="308.5508">MeasurementUnit</text><line style="stroke:#A80036;stroke-width:1.5;" x1="1962" x2="2090" y1="319.6406" y2="319.6406"/><text fill="#000000" font-family="sans-serif" font-size="11" lengthAdjust="spacing" textLength="34" x="1967" y="335.0596">PIECES</text><text fill="#000000" font-family="sans-serif" font-size="11" lengthAdjust="spacing" textLength="61" x="1967" y="348.8955">KILOGRAMS</text><text fill="#000000" font-family="sans-serif" font-size="11" lengthAdjust="spacing" textLength="42" x="1967" y="362.7314">POUNDS</text><text fill="#000000" font-family="sans-serif" font-size="11" lengthAdjust="spacing" textLength="34" x="1967" y="376.5674">LITRES</text><text fill="#000000" font-family="sans-serif" font-size="11" lengthAdjust="spacing" textLength="69" x="1967" y="390.4033">FLUID_OUNCE</text><line style="stroke:#A80036;stroke-width:1.5;" x1="1962" x2="2090" y1="396.8203" y2="396.8203"/><!--MD5=[777c9b4db9c3ab299ae589e5f9e3421b]
class shared_kernel.CurrencyValue--><rect codeLine="24" fill="#FEFECE" filter="url(#f6pv3onahqfj6)" height="61.8359" id="shared_kernel.CurrencyValue" style="stroke:#A80036;stroke-width:1.5;" width="119" x="1812.5" y="99.1406"/><ellipse cx="1830.65" cy="115.1406" fill="#ADD1B2" rx="11" ry="11" style="stroke:#A80036;stroke-width:1.0;"/><path d="M1833.4156,111.0156 Q1833.5719,110.7969 1833.7594,110.6875 Q1833.9469,110.5781 1834.1656,110.5781 Q1834.5406,110.5781 1834.775,110.8438 Q1835.0094,111.0938 1835.0094,111.7031 L1835.0094,113.1563 Q1835.0094,113.7656 1834.775,114.0313 Q1834.5406,114.2969 1834.1656,114.2969 Q1833.8219,114.2969 1833.6188,114.0938 Q1833.4156,113.9063 1833.3063,113.3906 Q1833.2594,113.0313 1833.0719,112.8438 Q1832.7438,112.4688 1832.1344,112.25 Q1831.525,112.0313 1830.9,112.0313 Q1830.1344,112.0313 1829.4938,112.3594 Q1828.8688,112.6875 1828.3688,113.4375 Q1827.8844,114.1875 1827.8844,115.2188 L1827.8844,116.3125 Q1827.8844,117.5469 1828.775,118.375 Q1829.6656,119.1875 1831.2594,119.1875 Q1832.1969,119.1875 1832.8531,118.9375 Q1833.2438,118.7813 1833.6656,118.3438 Q1833.9313,118.0781 1834.0719,118 Q1834.2281,117.9219 1834.4313,117.9219 Q1834.7594,117.9219 1835.0094,118.1875 Q1835.275,118.4375 1835.275,118.7813 Q1835.275,119.125 1834.9313,119.5313 Q1834.4313,120.1094 1833.6344,120.4375 Q1832.5563,120.8906 1831.2594,120.8906 Q1829.7438,120.8906 1828.5406,120.2656 Q1827.5563,119.7656 1826.8688,118.7031 Q1826.1813,117.625 1826.1813,116.3438 L1826.1813,115.1875 Q1826.1813,113.8594 1826.7906,112.7188 Q1827.4156,111.5625 1828.5094,110.9531 Q1829.6031,110.3281 1830.8375,110.3281 Q1831.5719,110.3281 1832.2125,110.5 Q1832.8688,110.6563 1833.4156,111.0156 Z " fill="#000000"/><text fill="#000000" font-family="sans-serif" font-size="12" lengthAdjust="spacing" textLength="80" x="1845.35" y="120.0508">CurrencyValue</text><line style="stroke:#A80036;stroke-width:1.5;" x1="1813.5" x2="1930.5" y1="131.1406" y2="131.1406"/><ellipse cx="1823.5" cy="142.1406" rx="3" ry="3" style="stroke:#038048;stroke-width:1.0;fill:none;"/><text fill="#000000" font-family="sans-serif" font-size="11" lengthAdjust="spacing" textLength="93" x="1832.5" y="146.5596">quanity: BigDecimal</text><line style="stroke:#A80036;stroke-width:1.5;" x1="1813.5" x2="1930.5" y1="152.9766" y2="152.9766"/><!--MD5=[2cd69bb6ce76f767714cb99f7d56bbbc]
class shared_kernel.Currency--><rect codeLine="29" fill="#FEFECE" filter="url(#f6pv3onahqfj6)" height="89.5078" id="shared_kernel.Currency" style="stroke:#A80036;stroke-width:1.5;" width="90" x="1827" y="301.1406"/><ellipse cx="1846.05" cy="317.1406" fill="#EB937F" rx="11" ry="11" style="stroke:#A80036;stroke-width:1.0;"/><path d="M1844.9094,317.9375 L1844.9094,320.4375 L1849.2375,320.4375 L1849.2375,319.5156 Q1849.2375,318.9063 1849.4719,318.6406 Q1849.7219,318.375 1850.0969,318.375 Q1850.4719,318.375 1850.7063,318.6406 Q1850.9406,318.9063 1850.9406,319.5156 L1850.9406,322.1406 L1842.9406,322.1406 Q1842.3156,322.1406 1842.05,321.9063 Q1841.8,321.6719 1841.8,321.2813 Q1841.8,320.9063 1842.0656,320.6719 Q1842.3313,320.4375 1842.9406,320.4375 L1843.2063,320.4375 L1843.2063,313.7813 L1842.9406,313.7813 Q1842.3156,313.7813 1842.05,313.5469 Q1841.8,313.3125 1841.8,312.9219 Q1841.8,312.5469 1842.05,312.3125 Q1842.3156,312.0781 1842.9406,312.0781 L1850.5656,312.0781 L1850.5656,314.6719 Q1850.5656,315.2813 1850.3313,315.5469 Q1850.1125,315.7969 1849.7219,315.7969 Q1849.3469,315.7969 1849.1125,315.5469 Q1848.8781,315.2813 1848.8781,314.6719 L1848.8781,313.7813 L1844.9094,313.7813 L1844.9094,316.2344 L1846.3938,316.2344 Q1846.3938,315.5781 1846.5188,315.3906 Q1846.7844,314.9844 1847.2531,314.9844 Q1847.6281,314.9844 1847.8625,315.25 Q1848.0969,315.5 1848.0969,316.1094 L1848.0969,318.0781 Q1848.0969,318.625 1847.9719,318.8125 Q1847.7063,319.2031 1847.2531,319.2031 Q1846.7844,319.2031 1846.5188,318.7969 Q1846.3938,318.6094 1846.3938,317.9375 L1844.9094,317.9375 Z " fill="#000000"/><text fill="#000000" font-family="sans-serif" font-size="12" lengthAdjust="spacing" textLength="49" x="1860.95" y="322.0508">Currency</text><line style="stroke:#A80036;stroke-width:1.5;" x1="1828" x2="1916" y1="333.1406" y2="333.1406"/><text fill="#000000" font-family="sans-serif" font-size="11" lengthAdjust="spacing" textLength="62" x="1833" y="348.5596">US_DOLLAR</text><text fill="#000000" font-family="sans-serif" font-size="11" lengthAdjust="spacing" textLength="78" x="1833" y="362.3955">MEXICAN_PESO</text><text fill="#000000" font-family="sans-serif" font-size="11" lengthAdjust="spacing" textLength="39" x="1833" y="376.2314">BITCOIN</text><line style="stroke:#A80036;stroke-width:1.5;" x1="1828" x2="1916" y1="382.6484" y2="382.6484"/><!--MD5=[5b2679762e1567eb31985708b51f233f]
class shared_kernel.OrderPlaced--><rect codeLine="35" fill="#FEFECE" filter="url(#f6pv3onahqfj6)" height="125.3672" id="shared_kernel.OrderPlaced" style="stroke:#A80036;stroke-width:1.5;" width="177" x="2450.5" y="67.6406"/><ellipse cx="2500.25" cy="87.7344" fill="#ADD1B2" rx="11" ry="11" style="stroke:#A80036;stroke-width:1.0;"/><path d="M2503.0156,83.6094 Q2503.1719,83.3906 2503.3594,83.2813 Q2503.5469,83.1719 2503.7656,83.1719 Q2504.1406,83.1719 2504.375,83.4375 Q2504.6094,83.6875 2504.6094,84.2969 L2504.6094,85.75 Q2504.6094,86.3594 2504.375,86.625 Q2504.1406,86.8906 2503.7656,86.8906 Q2503.4219,86.8906 2503.2188,86.6875 Q2503.0156,86.5 2502.9063,85.9844 Q2502.8594,85.625 2502.6719,85.4375 Q2502.3438,85.0625 2501.7344,84.8438 Q2501.125,84.625 2500.5,84.625 Q2499.7344,84.625 2499.0938,84.9531 Q2498.4688,85.2813 2497.9688,86.0313 Q2497.4844,86.7813 2497.4844,87.8125 L2497.4844,88.9063 Q2497.4844,90.1406 2498.375,90.9688 Q2499.2656,91.7813 2500.8594,91.7813 Q2501.7969,91.7813 2502.4531,91.5313 Q2502.8438,91.375 2503.2656,90.9375 Q2503.5313,90.6719 2503.6719,90.5938 Q2503.8281,90.5156 2504.0313,90.5156 Q2504.3594,90.5156 2504.6094,90.7813 Q2504.875,91.0313 2504.875,91.375 Q2504.875,91.7188 2504.5313,92.125 Q2504.0313,92.7031 2503.2344,93.0313 Q2502.1563,93.4844 2500.8594,93.4844 Q2499.3438,93.4844 2498.1406,92.8594 Q2497.1563,92.3594 2496.4688,91.2969 Q2495.7813,90.2188 2495.7813,88.9375 L2495.7813,87.7813 Q2495.7813,86.4531 2496.3906,85.3125 Q2497.0156,84.1563 2498.1094,83.5469 Q2499.2031,82.9219 2500.4375,82.9219 Q2501.1719,82.9219 2501.8125,83.0938 Q2502.4688,83.25 2503.0156,83.6094 Z " fill="#000000"/><text fill="#000000" font-family="sans-serif" font-size="12" font-style="italic" lengthAdjust="spacing" textLength="44" x="2533.25" y="85.0977">«event»</text><text fill="#000000" font-family="sans-serif" font-size="12" lengthAdjust="spacing" textLength="69" x="2520.75" y="100.1914">OrderPlaced</text><line style="stroke:#A80036;stroke-width:1.5;" x1="2451.5" x2="2626.5" y1="107.8281" y2="107.8281"/><ellipse cx="2461.5" cy="118.8281" rx="3" ry="3" style="stroke:#038048;stroke-width:1.0;fill:none;"/><text fill="#000000" font-family="sans-serif" font-size="11" lengthAdjust="spacing" textLength="84" x="2470.5" y="123.2471">locationId: integer</text><ellipse cx="2461.5" cy="132.6641" rx="3" ry="3" style="stroke:#038048;stroke-width:1.0;fill:none;"/><text fill="#000000" font-family="sans-serif" font-size="11" lengthAdjust="spacing" textLength="73" x="2470.5" y="137.083">orderId: integer</text><ellipse cx="2461.5" cy="146.5" rx="3" ry="3" style="stroke:#038048;stroke-width:1.0;fill:none;"/><text fill="#000000" font-family="sans-serif" font-size="11" lengthAdjust="spacing" textLength="151" x="2470.5" y="150.9189">currencyValue: CurrencyValue</text><ellipse cx="2461.5" cy="160.3359" rx="3" ry="3" style="stroke:#038048;stroke-width:1.0;fill:none;"/><text fill="#000000" font-family="sans-serif" font-size="11" lengthAdjust="spacing" textLength="125" x="2470.5" y="164.7549">items: ordering.MenuItem[]</text><ellipse cx="2461.5" cy="174.1719" rx="3" ry="3" style="stroke:#038048;stroke-width:1.0;fill:none;"/><text fill="#000000" font-family="sans-serif" font-size="11" lengthAdjust="spacing" textLength="124" x="2470.5" y="178.5908">dateTime: ZonedDateTime</text><line style="stroke:#A80036;stroke-width:1.5;" x1="2451.5" x2="2626.5" y1="185.0078" y2="185.0078"/><!--MD5=[10de035b2638695d9ae764cd714eef16]
class shared_kernel.OrderPaid--><rect codeLine="43" fill="#FEFECE" filter="url(#f6pv3onahqfj6)" height="97.6953" id="shared_kernel.OrderPaid" style="stroke:#A80036;stroke-width:1.5;" width="150" x="2193" y="297.1406"/><ellipse cx="2235.9" cy="317.2344" fill="#ADD1B2" rx="11" ry="11" style="stroke:#A80036;stroke-width:1.0;"/><path d="M2238.6656,313.1094 Q2238.8219,312.8906 2239.0094,312.7813 Q2239.1969,312.6719 2239.4156,312.6719 Q2239.7906,312.6719 2240.025,312.9375 Q2240.2594,313.1875 2240.2594,313.7969 L2240.2594,315.25 Q2240.2594,315.8594 2240.025,316.125 Q2239.7906,316.3906 2239.4156,316.3906 Q2239.0719,316.3906 2238.8688,316.1875 Q2238.6656,316 2238.5563,315.4844 Q2238.5094,315.125 2238.3219,314.9375 Q2237.9938,314.5625 2237.3844,314.3438 Q2236.775,314.125 2236.15,314.125 Q2235.3844,314.125 2234.7438,314.4531 Q2234.1188,314.7813 2233.6188,315.5313 Q2233.1344,316.2813 2233.1344,317.3125 L2233.1344,318.4063 Q2233.1344,319.6406 2234.025,320.4688 Q2234.9156,321.2813 2236.5094,321.2813 Q2237.4469,321.2813 2238.1031,321.0313 Q2238.4938,320.875 2238.9156,320.4375 Q2239.1813,320.1719 2239.3219,320.0938 Q2239.4781,320.0156 2239.6813,320.0156 Q2240.0094,320.0156 2240.2594,320.2813 Q2240.525,320.5313 2240.525,320.875 Q2240.525,321.2188 2240.1813,321.625 Q2239.6813,322.2031 2238.8844,322.5313 Q2237.8063,322.9844 2236.5094,322.9844 Q2234.9938,322.9844 2233.7906,322.3594 Q2232.8063,321.8594 2232.1188,320.7969 Q2231.4313,319.7188 2231.4313,318.4375 L2231.4313,317.2813 Q2231.4313,315.9531 2232.0406,314.8125 Q2232.6656,313.6563 2233.7594,313.0469 Q2234.8531,312.4219 2236.0875,312.4219 Q2236.8219,312.4219 2237.4625,312.5938 Q2238.1188,312.75 2238.6656,313.1094 Z " fill="#000000"/><text fill="#000000" font-family="sans-serif" font-size="12" font-style="italic" lengthAdjust="spacing" textLength="44" x="2262.1" y="314.5977">«event»</text><text fill="#000000" font-family="sans-serif" font-size="12" lengthAdjust="spacing" textLength="56" x="2256.1" y="329.6914">OrderPaid</text><line style="stroke:#A80036;stroke-width:1.5;" x1="2194" x2="2342" y1="337.3281" y2="337.3281"/><ellipse cx="2204" cy="348.3281" rx="3" ry="3" style="stroke:#038048;stroke-width:1.0;fill:none;"/><text fill="#000000" font-family="sans-serif" font-size="11" lengthAdjust="spacing" textLength="84" x="2213" y="352.7471">locationId: integer</text><ellipse cx="2204" cy="362.1641" rx="3" ry="3" style="stroke:#038048;stroke-width:1.0;fill:none;"/><text fill="#000000" font-family="sans-serif" font-size="11" lengthAdjust="spacing" textLength="73" x="2213" y="366.583">orderId: integer</text><ellipse cx="2204" cy="376" rx="3" ry="3" style="stroke:#038048;stroke-width:1.0;fill:none;"/><text fill="#000000" font-family="sans-serif" font-size="11" lengthAdjust="spacing" textLength="124" x="2213" y="380.4189">dateTime: ZonedDateTime</text><line style="stroke:#A80036;stroke-width:1.5;" x1="2194" x2="2342" y1="386.8359" y2="386.8359"/><!--MD5=[0e00c2fdde9314be167f16b302f4257d]
class shared_kernel.OrderReadyForCustomer--><rect codeLine="49" fill="#FEFECE" filter="url(#f6pv3onahqfj6)" height="111.5313" id="shared_kernel.OrderReadyForCustomer" style="stroke:#A80036;stroke-width:1.5;" width="171" x="2378.5" y="290.1406"/><ellipse cx="2393.5" cy="310.2344" fill="#ADD1B2" rx="11" ry="11" style="stroke:#A80036;stroke-width:1.0;"/><path d="M2396.2656,306.1094 Q2396.4219,305.8906 2396.6094,305.7813 Q2396.7969,305.6719 2397.0156,305.6719 Q2397.3906,305.6719 2397.625,305.9375 Q2397.8594,306.1875 2397.8594,306.7969 L2397.8594,308.25 Q2397.8594,308.8594 2397.625,309.125 Q2397.3906,309.3906 2397.0156,309.3906 Q2396.6719,309.3906 2396.4688,309.1875 Q2396.2656,309 2396.1563,308.4844 Q2396.1094,308.125 2395.9219,307.9375 Q2395.5938,307.5625 2394.9844,307.3438 Q2394.375,307.125 2393.75,307.125 Q2392.9844,307.125 2392.3438,307.4531 Q2391.7188,307.7813 2391.2188,308.5313 Q2390.7344,309.2813 2390.7344,310.3125 L2390.7344,311.4063 Q2390.7344,312.6406 2391.625,313.4688 Q2392.5156,314.2813 2394.1094,314.2813 Q2395.0469,314.2813 2395.7031,314.0313 Q2396.0938,313.875 2396.5156,313.4375 Q2396.7813,313.1719 2396.9219,313.0938 Q2397.0781,313.0156 2397.2813,313.0156 Q2397.6094,313.0156 2397.8594,313.2813 Q2398.125,313.5313 2398.125,313.875 Q2398.125,314.2188 2397.7813,314.625 Q2397.2813,315.2031 2396.4844,315.5313 Q2395.4063,315.9844 2394.1094,315.9844 Q2392.5938,315.9844 2391.3906,315.3594 Q2390.4063,314.8594 2389.7188,313.7969 Q2389.0313,312.7188 2389.0313,311.4375 L2389.0313,310.2813 Q2389.0313,308.9531 2389.6406,307.8125 Q2390.2656,306.6563 2391.3594,306.0469 Q2392.4531,305.4219 2393.6875,305.4219 Q2394.4219,305.4219 2395.0625,305.5938 Q2395.7188,305.75 2396.2656,306.1094 Z " fill="#000000"/><text fill="#000000" font-family="sans-serif" font-size="12" font-style="italic" lengthAdjust="spacing" textLength="44" x="2455" y="307.5977">«event»</text><text fill="#000000" font-family="sans-serif" font-size="12" lengthAdjust="spacing" textLength="139" x="2407.5" y="322.6914">OrderReadyForCustomer</text><line style="stroke:#A80036;stroke-width:1.5;" x1="2379.5" x2="2548.5" y1="330.3281" y2="330.3281"/><ellipse cx="2389.5" cy="341.3281" rx="3" ry="3" style="stroke:#038048;stroke-width:1.0;fill:none;"/><text fill="#000000" font-family="sans-serif" font-size="11" lengthAdjust="spacing" textLength="109" x="2398.5" y="345.7471">kitchenOrderId: integer</text><ellipse cx="2389.5" cy="355.1641" rx="3" ry="3" style="stroke:#038048;stroke-width:1.0;fill:none;"/><text fill="#000000" font-family="sans-serif" font-size="11" lengthAdjust="spacing" textLength="84" x="2398.5" y="359.583">locationId: integer</text><ellipse cx="2389.5" cy="369" rx="3" ry="3" style="stroke:#038048;stroke-width:1.0;fill:none;"/><text fill="#000000" font-family="sans-serif" font-size="11" lengthAdjust="spacing" textLength="73" x="2398.5" y="373.4189">orderId: integer</text><ellipse cx="2389.5" cy="382.8359" rx="3" ry="3" style="stroke:#038048;stroke-width:1.0;fill:none;"/><text fill="#000000" font-family="sans-serif" font-size="11" lengthAdjust="spacing" textLength="124" x="2398.5" y="387.2549">dateTime: ZonedDateTime</text><line style="stroke:#A80036;stroke-width:1.5;" x1="2379.5" x2="2548.5" y1="393.6719" y2="393.6719"/><!--MD5=[c526e2c421f0a26fb4a79ec28c035090]
class ordering.UbiquitousLanguage--><rect codeLine="60" fill="#FFFFFF" filter="url(#f6pv3onahqfj6)" height="117.1797" id="ordering.UbiquitousLanguage" style="stroke:#A80036;stroke-width:1.5;" width="430" x="32" y="71.6406"/><ellipse cx="184.75" cy="87.6406" fill="#EB937F" rx="11" ry="11" style="stroke:#A80036;stroke-width:1.0;"/><path d="M183.6094,88.4375 L183.6094,90.9375 L187.9375,90.9375 L187.9375,90.0156 Q187.9375,89.4063 188.1719,89.1406 Q188.4219,88.875 188.7969,88.875 Q189.1719,88.875 189.4063,89.1406 Q189.6406,89.4063 189.6406,90.0156 L189.6406,92.6406 L181.6406,92.6406 Q181.0156,92.6406 180.75,92.4063 Q180.5,92.1719 180.5,91.7813 Q180.5,91.4063 180.7656,91.1719 Q181.0313,90.9375 181.6406,90.9375 L181.9063,90.9375 L181.9063,84.2813 L181.6406,84.2813 Q181.0156,84.2813 180.75,84.0469 Q180.5,83.8125 180.5,83.4219 Q180.5,83.0469 180.75,82.8125 Q181.0156,82.5781 181.6406,82.5781 L189.2656,82.5781 L189.2656,85.1719 Q189.2656,85.7813 189.0313,86.0469 Q188.8125,86.2969 188.4219,86.2969 Q188.0469,86.2969 187.8125,86.0469 Q187.5781,85.7813 187.5781,85.1719 L187.5781,84.2813 L183.6094,84.2813 L183.6094,86.7344 L185.0938,86.7344 Q185.0938,86.0781 185.2188,85.8906 Q185.4844,85.4844 185.9531,85.4844 Q186.3281,85.4844 186.5625,85.75 Q186.7969,86 186.7969,86.6094 L186.7969,88.5781 Q186.7969,89.125 186.6719,89.3125 Q186.4063,89.7031 185.9531,89.7031 Q185.4844,89.7031 185.2188,89.2969 Q185.0938,89.1094 185.0938,88.4375 L183.6094,88.4375 Z " fill="#000000"/><text fill="#000000" font-family="sans-serif" font-size="12" lengthAdjust="spacing" textLength="116" x="205.25" y="92.5508">UbiquitousLanguage</text><line style="stroke:#A80036;stroke-width:1.5;" x1="33" x2="461" y1="103.6406" y2="103.6406"/><text fill="#000000" font-family="sans-serif" font-size="11" lengthAdjust="spacing" textLength="310" x="38" y="119.0596">Location: the physical restaurant where an order may be placed</text><text fill="#000000" font-family="sans-serif" font-size="11" lengthAdjust="spacing" textLength="256" x="38" y="132.8955">Menu: A list of menu items that may change over time</text><text fill="#000000" font-family="sans-serif" font-size="11" lengthAdjust="spacing" textLength="395" x="38" y="146.7314">Order: A list of order items for a customer, may change before the order is placed</text><text fill="#000000" font-family="sans-serif" font-size="11" lengthAdjust="spacing" textLength="417" x="38" y="160.5674">FoodBeverage: Something that a customer might order from a coffee shop, e.g. coffee</text><text fill="#000000" font-family="sans-serif" font-size="11" lengthAdjust="spacing" textLength="418" x="38" y="174.4033">PricingOffer: The price for which a given quantity of FoodBeverage may be purchased</text><line style="stroke:#A80036;stroke-width:1.5;" x1="33" x2="461" y1="180.8203" y2="180.8203"/><!--MD5=[69e700d7c2e68570d2f4feaf4b60ca38]
class ordering.Location--><rect codeLine="68" fill="#FEFECE" filter="url(#f6pv3onahqfj6)" height="131.0156" id="ordering.Location" style="stroke:#A80036;stroke-width:1.5;" width="124" x="746" y="64.6406"/><ellipse cx="781.25" cy="80.6406" fill="#ADD1B2" rx="11" ry="11" style="stroke:#A80036;stroke-width:1.0;"/><path d="M784.0156,76.5156 Q784.1719,76.2969 784.3594,76.1875 Q784.5469,76.0781 784.7656,76.0781 Q785.1406,76.0781 785.375,76.3438 Q785.6094,76.5938 785.6094,77.2031 L785.6094,78.6563 Q785.6094,79.2656 785.375,79.5313 Q785.1406,79.7969 784.7656,79.7969 Q784.4219,79.7969 784.2188,79.5938 Q784.0156,79.4063 783.9063,78.8906 Q783.8594,78.5313 783.6719,78.3438 Q783.3438,77.9688 782.7344,77.75 Q782.125,77.5313 781.5,77.5313 Q780.7344,77.5313 780.0938,77.8594 Q779.4688,78.1875 778.9688,78.9375 Q778.4844,79.6875 778.4844,80.7188 L778.4844,81.8125 Q778.4844,83.0469 779.375,83.875 Q780.2656,84.6875 781.8594,84.6875 Q782.7969,84.6875 783.4531,84.4375 Q783.8438,84.2813 784.2656,83.8438 Q784.5313,83.5781 784.6719,83.5 Q784.8281,83.4219 785.0313,83.4219 Q785.3594,83.4219 785.6094,83.6875 Q785.875,83.9375 785.875,84.2813 Q785.875,84.625 785.5313,85.0313 Q785.0313,85.6094 784.2344,85.9375 Q783.1563,86.3906 781.8594,86.3906 Q780.3438,86.3906 779.1406,85.7656 Q778.1563,85.2656 777.4688,84.2031 Q776.7813,83.125 776.7813,81.8438 L776.7813,80.6875 Q776.7813,79.3594 777.3906,78.2188 Q778.0156,77.0625 779.1094,76.4531 Q780.2031,75.8281 781.4375,75.8281 Q782.1719,75.8281 782.8125,76 Q783.4688,76.1563 784.0156,76.5156 Z " fill="#000000"/><text fill="#000000" font-family="sans-serif" font-size="12" lengthAdjust="spacing" textLength="47" x="799.75" y="85.5508">Location</text><line style="stroke:#A80036;stroke-width:1.5;" x1="747" x2="869" y1="96.6406" y2="96.6406"/><ellipse cx="757" cy="107.6406" rx="3" ry="3" style="stroke:#038048;stroke-width:1.0;fill:none;"/><text fill="#000000" font-family="sans-serif" font-size="11" lengthAdjust="spacing" textLength="47" x="766" y="112.0596">id: integer</text><ellipse cx="757" cy="121.4766" rx="3" ry="3" style="stroke:#038048;stroke-width:1.0;fill:none;"/><text fill="#000000" font-family="sans-serif" font-size="11" lengthAdjust="spacing" textLength="60" x="766" y="125.8955">name: String</text><line style="stroke:#A80036;stroke-width:1.5;" x1="747" x2="869" y1="132.3125" y2="132.3125"/><text fill="#000000" font-family="sans-serif" font-size="11" lengthAdjust="spacing" textLength="94" x="752" y="147.7314">Menu createMenu()</text><text fill="#000000" font-family="sans-serif" font-size="11" lengthAdjust="spacing" textLength="112" x="752" y="161.5674">void deleteMenu(Menu)</text><text fill="#000000" font-family="sans-serif" font-size="11" lengthAdjust="spacing" textLength="0" x="755" y="175.4033"/><text fill="#000000" font-family="sans-serif" font-size="11" lengthAdjust="spacing" textLength="98" x="752" y="189.2393">Order createOrder()</text><!--MD5=[cb72925a0c80cbdc5fecacca68a0124e]
class ordering.Menu--><rect codeLine="87" fill="#FEFECE" filter="url(#f6pv3onahqfj6)" height="89.5078" id="ordering.Menu" style="stroke:#A80036;stroke-width:1.5;" width="477" x="116.5" y="448.6406"/><ellipse cx="335.75" cy="464.6406" fill="#ADD1B2" rx="11" ry="11" style="stroke:#A80036;stroke-width:1.0;"/><path d="M338.5156,460.5156 Q338.6719,460.2969 338.8594,460.1875 Q339.0469,460.0781 339.2656,460.0781 Q339.6406,460.0781 339.875,460.3438 Q340.1094,460.5938 340.1094,461.2031 L340.1094,462.6563 Q340.1094,463.2656 339.875,463.5313 Q339.6406,463.7969 339.2656,463.7969 Q338.9219,463.7969 338.7188,463.5938 Q338.5156,463.4063 338.4063,462.8906 Q338.3594,462.5313 338.1719,462.3438 Q337.8438,461.9688 337.2344,461.75 Q336.625,461.5313 336,461.5313 Q335.2344,461.5313 334.5938,461.8594 Q333.9688,462.1875 333.4688,462.9375 Q332.9844,463.6875 332.9844,464.7188 L332.9844,465.8125 Q332.9844,467.0469 333.875,467.875 Q334.7656,468.6875 336.3594,468.6875 Q337.2969,468.6875 337.9531,468.4375 Q338.3438,468.2813 338.7656,467.8438 Q339.0313,467.5781 339.1719,467.5 Q339.3281,467.4219 339.5313,467.4219 Q339.8594,467.4219 340.1094,467.6875 Q340.375,467.9375 340.375,468.2813 Q340.375,468.625 340.0313,469.0313 Q339.5313,469.6094 338.7344,469.9375 Q337.6563,470.3906 336.3594,470.3906 Q334.8438,470.3906 333.6406,469.7656 Q332.6563,469.2656 331.9688,468.2031 Q331.2813,467.125 331.2813,465.8438 L331.2813,464.6875 Q331.2813,463.3594 331.8906,462.2188 Q332.5156,461.0625 333.6094,460.4531 Q334.7031,459.8281 335.9375,459.8281 Q336.6719,459.8281 337.3125,460 Q337.9688,460.1563 338.5156,460.5156 Z " fill="#000000"/><text fill="#000000" font-family="sans-serif" font-size="12" lengthAdjust="spacing" textLength="30" x="356.25" y="469.5508">Menu</text><line style="stroke:#A80036;stroke-width:1.5;" x1="117.5" x2="592.5" y1="480.6406" y2="480.6406"/><ellipse cx="127.5" cy="491.6406" rx="3" ry="3" style="stroke:#038048;stroke-width:1.0;fill:none;"/><text fill="#000000" font-family="sans-serif" font-size="11" lengthAdjust="spacing" textLength="47" x="136.5" y="496.0596">id: integer</text><line style="stroke:#A80036;stroke-width:1.5;" x1="117.5" x2="592.5" y1="502.4766" y2="502.4766"/><text fill="#000000" font-family="sans-serif" font-size="11" lengthAdjust="spacing" textLength="465" x="122.5" y="517.8955">void addMenuItem(toMenu: Menu, foodBeverages: FoodBeverage[], pricingOffers: PricingOffer[])</text><text fill="#000000" font-family="sans-serif" font-size="11" lengthAdjust="spacing" textLength="294" x="122.5" y="531.7314">void removeMenuItem(fromMenu: Menu, menuItem: MenuItem)</text><!--MD5=[edf33383e1839779ea42c598dd49c6d3]
class ordering.Order--><rect codeLine="94" fill="#FEFECE" filter="url(#f6pv3onahqfj6)" height="144.8516" id="ordering.Order" style="stroke:#A80036;stroke-width:1.5;" width="494" x="376" y="273.6406"/><ellipse cx="603.25" cy="289.6406" fill="#ADD1B2" rx="11" ry="11" style="stroke:#A80036;stroke-width:1.0;"/><path d="M606.0156,285.5156 Q606.1719,285.2969 606.3594,285.1875 Q606.5469,285.0781 606.7656,285.0781 Q607.1406,285.0781 607.375,285.3438 Q607.6094,285.5938 607.6094,286.2031 L607.6094,287.6563 Q607.6094,288.2656 607.375,288.5313 Q607.1406,288.7969 606.7656,288.7969 Q606.4219,288.7969 606.2188,288.5938 Q606.0156,288.4063 605.9063,287.8906 Q605.8594,287.5313 605.6719,287.3438 Q605.3438,286.9688 604.7344,286.75 Q604.125,286.5313 603.5,286.5313 Q602.7344,286.5313 602.0938,286.8594 Q601.4688,287.1875 600.9688,287.9375 Q600.4844,288.6875 600.4844,289.7188 L600.4844,290.8125 Q600.4844,292.0469 601.375,292.875 Q602.2656,293.6875 603.8594,293.6875 Q604.7969,293.6875 605.4531,293.4375 Q605.8438,293.2813 606.2656,292.8438 Q606.5313,292.5781 606.6719,292.5 Q606.8281,292.4219 607.0313,292.4219 Q607.3594,292.4219 607.6094,292.6875 Q607.875,292.9375 607.875,293.2813 Q607.875,293.625 607.5313,294.0313 Q607.0313,294.6094 606.2344,294.9375 Q605.1563,295.3906 603.8594,295.3906 Q602.3438,295.3906 601.1406,294.7656 Q600.1563,294.2656 599.4688,293.2031 Q598.7813,292.125 598.7813,290.8438 L598.7813,289.6875 Q598.7813,288.3594 599.3906,287.2188 Q600.0156,286.0625 601.1094,285.4531 Q602.2031,284.8281 603.4375,284.8281 Q604.1719,284.8281 604.8125,285 Q605.4688,285.1563 606.0156,285.5156 Z " fill="#000000"/><text fill="#000000" font-family="sans-serif" font-size="12" lengthAdjust="spacing" textLength="31" x="623.75" y="294.5508">Order</text><line style="stroke:#A80036;stroke-width:1.5;" x1="377" x2="869" y1="305.6406" y2="305.6406"/><ellipse cx="387" cy="316.6406" rx="3" ry="3" style="stroke:#038048;stroke-width:1.0;fill:none;"/><text fill="#000000" font-family="sans-serif" font-size="11" lengthAdjust="spacing" textLength="47" x="396" y="321.0596">id: integer</text><ellipse cx="387" cy="330.4766" rx="3" ry="3" style="stroke:#038048;stroke-width:1.0;fill:none;"/><text fill="#000000" font-family="sans-serif" font-size="11" lengthAdjust="spacing" textLength="106" x="396" y="334.8955">customerName: String</text><line style="stroke:#A80036;stroke-width:1.5;" x1="377" x2="869" y1="341.3125" y2="341.3125"/><text fill="#000000" font-family="sans-serif" font-size="11" lengthAdjust="spacing" textLength="482" x="382" y="356.7314">void addOrderItem(toOrder: Order, menuItem: MenuItem, quantity: integer, specialInstructions: String)</text><text fill="#000000" font-family="sans-serif" font-size="11" lengthAdjust="spacing" textLength="302" x="382" y="370.5674">void removeOrderItem(fromOrder: Order, orderItem: OrderItem)</text><text fill="#000000" font-family="sans-serif" font-size="11" lengthAdjust="spacing" textLength="211" x="382" y="384.4033">CurrencyValue calculatePrice(order: Order)</text><text fill="#000000" font-family="sans-serif" font-size="11" lengthAdjust="spacing" textLength="179" x="382" y="398.2393">void submitForPayment(order: Order)</text><text fill="#000000" font-family="sans-serif" font-size="11" lengthAdjust="spacing" textLength="151" x="382" y="412.0752">void cancelOrder(order: Order)</text><!--MD5=[cec363cb0be2ffa855d107ff2828c1d0]
class ordering.MenuItem--><rect fill="#FEFECE" filter="url(#f6pv3onahqfj6)" height="48" id="ordering.MenuItem" style="stroke:#A80036;stroke-width:1.5;" width="86" x="436" y="760.1406"/><ellipse cx="451" cy="776.1406" fill="#ADD1B2" rx="11" ry="11" style="stroke:#A80036;stroke-width:1.0;"/><path d="M453.7656,772.0156 Q453.9219,771.7969 454.1094,771.6875 Q454.2969,771.5781 454.5156,771.5781 Q454.8906,771.5781 455.125,771.8438 Q455.3594,772.0938 455.3594,772.7031 L455.3594,774.1563 Q455.3594,774.7656 455.125,775.0313 Q454.8906,775.2969 454.5156,775.2969 Q454.1719,775.2969 453.9688,775.0938 Q453.7656,774.9063 453.6563,774.3906 Q453.6094,774.0313 453.4219,773.8438 Q453.0938,773.4688 452.4844,773.25 Q451.875,773.0313 451.25,773.0313 Q450.4844,773.0313 449.8438,773.3594 Q449.2188,773.6875 448.7188,774.4375 Q448.2344,775.1875 448.2344,776.2188 L448.2344,777.3125 Q448.2344,778.5469 449.125,779.375 Q450.0156,780.1875 451.6094,780.1875 Q452.5469,780.1875 453.2031,779.9375 Q453.5938,779.7813 454.0156,779.3438 Q454.2813,779.0781 454.4219,779 Q454.5781,778.9219 454.7813,778.9219 Q455.1094,778.9219 455.3594,779.1875 Q455.625,779.4375 455.625,779.7813 Q455.625,780.125 455.2813,780.5313 Q454.7813,781.1094 453.9844,781.4375 Q452.9063,781.8906 451.6094,781.8906 Q450.0938,781.8906 448.8906,781.2656 Q447.9063,780.7656 447.2188,779.7031 Q446.5313,778.625 446.5313,777.3438 L446.5313,776.1875 Q446.5313,774.8594 447.1406,773.7188 Q447.7656,772.5625 448.8594,771.9531 Q449.9531,771.3281 451.1875,771.3281 Q451.9219,771.3281 452.5625,771.5 Q453.2188,771.6563 453.7656,772.0156 Z " fill="#000000"/><text fill="#000000" font-family="sans-serif" font-size="12" lengthAdjust="spacing" textLength="54" x="465" y="781.0508">MenuItem</text><line style="stroke:#A80036;stroke-width:1.5;" x1="437" x2="521" y1="792.1406" y2="792.1406"/><line style="stroke:#A80036;stroke-width:1.5;" x1="437" x2="521" y1="800.1406" y2="800.1406"/><!--MD5=[4d14d265d77881527bc9f67889369cdc]
class ordering.OrderItem--><rect codeLine="112" fill="#FEFECE" filter="url(#f6pv3onahqfj6)" height="103.3438" id="ordering.OrderItem" style="stroke:#A80036;stroke-width:1.5;" width="150" x="404" y="568.6406"/><ellipse cx="447.35" cy="584.6406" fill="#ADD1B2" rx="11" ry="11" style="stroke:#A80036;stroke-width:1.0;"/><path d="M450.1156,580.5156 Q450.2719,580.2969 450.4594,580.1875 Q450.6469,580.0781 450.8656,580.0781 Q451.2406,580.0781 451.475,580.3438 Q451.7094,580.5938 451.7094,581.2031 L451.7094,582.6563 Q451.7094,583.2656 451.475,583.5313 Q451.2406,583.7969 450.8656,583.7969 Q450.5219,583.7969 450.3188,583.5938 Q450.1156,583.4063 450.0063,582.8906 Q449.9594,582.5313 449.7719,582.3438 Q449.4438,581.9688 448.8344,581.75 Q448.225,581.5313 447.6,581.5313 Q446.8344,581.5313 446.1938,581.8594 Q445.5688,582.1875 445.0688,582.9375 Q444.5844,583.6875 444.5844,584.7188 L444.5844,585.8125 Q444.5844,587.0469 445.475,587.875 Q446.3656,588.6875 447.9594,588.6875 Q448.8969,588.6875 449.5531,588.4375 Q449.9438,588.2813 450.3656,587.8438 Q450.6313,587.5781 450.7719,587.5 Q450.9281,587.4219 451.1313,587.4219 Q451.4594,587.4219 451.7094,587.6875 Q451.975,587.9375 451.975,588.2813 Q451.975,588.625 451.6313,589.0313 Q451.1313,589.6094 450.3344,589.9375 Q449.2563,590.3906 447.9594,590.3906 Q446.4438,590.3906 445.2406,589.7656 Q444.2563,589.2656 443.5688,588.2031 Q442.8813,587.125 442.8813,585.8438 L442.8813,584.6875 Q442.8813,583.3594 443.4906,582.2188 Q444.1156,581.0625 445.2094,580.4531 Q446.3031,579.8281 447.5375,579.8281 Q448.2719,579.8281 448.9125,580 Q449.5688,580.1563 450.1156,580.5156 Z " fill="#000000"/><text fill="#000000" font-family="sans-serif" font-size="12" lengthAdjust="spacing" textLength="55" x="467.65" y="589.5508">OrderItem</text><line style="stroke:#A80036;stroke-width:1.5;" x1="405" x2="553" y1="600.6406" y2="600.6406"/><ellipse cx="415" cy="611.6406" rx="3" ry="3" style="stroke:#038048;stroke-width:1.0;fill:none;"/><text fill="#000000" font-family="sans-serif" font-size="11" lengthAdjust="spacing" textLength="47" x="424" y="616.0596">id: integer</text><ellipse cx="415" cy="625.4766" rx="3" ry="3" style="stroke:#038048;stroke-width:1.0;fill:none;"/><text fill="#000000" font-family="sans-serif" font-size="11" lengthAdjust="spacing" textLength="124" x="424" y="629.8955">specialInstructions: String</text><ellipse cx="415" cy="639.3125" rx="3" ry="3" style="stroke:#038048;stroke-width:1.0;fill:none;"/><text fill="#000000" font-family="sans-serif" font-size="11" lengthAdjust="spacing" textLength="77" x="424" y="643.7314">quantity: integer</text><ellipse cx="415" cy="653.1484" rx="3" ry="3" style="stroke:#038048;stroke-width:1.0;fill:none;"/><text fill="#000000" font-family="sans-serif" font-size="11" lengthAdjust="spacing" textLength="119" x="424" y="657.5674">size: shared_kernel.Size</text><line style="stroke:#A80036;stroke-width:1.5;" x1="405" x2="553" y1="663.9844" y2="663.9844"/><!--MD5=[8379ef2c11dfcd3838c6d16657772e24]
class ordering.OrderStatus--><rect codeLine="106" fill="#FEFECE" filter="url(#f6pv3onahqfj6)" height="89.5078" id="ordering.OrderStatus" style="stroke:#A80036;stroke-width:1.5;" width="98" x="589" y="575.1406"/><ellipse cx="604" cy="591.1406" fill="#EB937F" rx="11" ry="11" style="stroke:#A80036;stroke-width:1.0;"/><path d="M602.8594,591.9375 L602.8594,594.4375 L607.1875,594.4375 L607.1875,593.5156 Q607.1875,592.9063 607.4219,592.6406 Q607.6719,592.375 608.0469,592.375 Q608.4219,592.375 608.6563,592.6406 Q608.8906,592.9063 608.8906,593.5156 L608.8906,596.1406 L600.8906,596.1406 Q600.2656,596.1406 600,595.9063 Q599.75,595.6719 599.75,595.2813 Q599.75,594.9063 600.0156,594.6719 Q600.2813,594.4375 600.8906,594.4375 L601.1563,594.4375 L601.1563,587.7813 L600.8906,587.7813 Q600.2656,587.7813 600,587.5469 Q599.75,587.3125 599.75,586.9219 Q599.75,586.5469 600,586.3125 Q600.2656,586.0781 600.8906,586.0781 L608.5156,586.0781 L608.5156,588.6719 Q608.5156,589.2813 608.2813,589.5469 Q608.0625,589.7969 607.6719,589.7969 Q607.2969,589.7969 607.0625,589.5469 Q606.8281,589.2813 606.8281,588.6719 L606.8281,587.7813 L602.8594,587.7813 L602.8594,590.2344 L604.3438,590.2344 Q604.3438,589.5781 604.4688,589.3906 Q604.7344,588.9844 605.2031,588.9844 Q605.5781,588.9844 605.8125,589.25 Q606.0469,589.5 606.0469,590.1094 L606.0469,592.0781 Q606.0469,592.625 605.9219,592.8125 Q605.6563,593.2031 605.2031,593.2031 Q604.7344,593.2031 604.4688,592.7969 Q604.3438,592.6094 604.3438,591.9375 L602.8594,591.9375 Z " fill="#000000"/><text fill="#000000" font-family="sans-serif" font-size="12" lengthAdjust="spacing" textLength="66" x="618" y="596.0508">OrderStatus</text><line style="stroke:#A80036;stroke-width:1.5;" x1="590" x2="686" y1="607.1406" y2="607.1406"/><text fill="#000000" font-family="sans-serif" font-size="11" lengthAdjust="spacing" textLength="53" x="595" y="622.5596">RECEIVING</text><text fill="#000000" font-family="sans-serif" font-size="11" lengthAdjust="spacing" textLength="56" x="595" y="636.3955">SUBMITTED</text><text fill="#000000" font-family="sans-serif" font-size="11" lengthAdjust="spacing" textLength="60" x="595" y="650.2314">CANCELLED</text><line style="stroke:#A80036;stroke-width:1.5;" x1="590" x2="686" y1="656.6484" y2="656.6484"/><!--MD5=[b2b0646daa3754f846b6df9fdbdbf161]
class ordering.FoodBeverage--><rect codeLine="123" fill="#FEFECE" filter="url(#f6pv3onahqfj6)" height="75.6719" id="ordering.FoodBeverage" style="stroke:#A80036;stroke-width:1.5;" width="113" x="422.5" y="903.6406"/><ellipse cx="437.95" cy="919.6406" fill="#ADD1B2" rx="11" ry="11" style="stroke:#A80036;stroke-width:1.0;"/><path d="M440.7156,915.5156 Q440.8719,915.2969 441.0594,915.1875 Q441.2469,915.0781 441.4656,915.0781 Q441.8406,915.0781 442.075,915.3438 Q442.3094,915.5938 442.3094,916.2031 L442.3094,917.6563 Q442.3094,918.2656 442.075,918.5313 Q441.8406,918.7969 441.4656,918.7969 Q441.1219,918.7969 440.9188,918.5938 Q440.7156,918.4063 440.6063,917.8906 Q440.5594,917.5313 440.3719,917.3438 Q440.0438,916.9688 439.4344,916.75 Q438.825,916.5313 438.2,916.5313 Q437.4344,916.5313 436.7938,916.8594 Q436.1688,917.1875 435.6688,917.9375 Q435.1844,918.6875 435.1844,919.7188 L435.1844,920.8125 Q435.1844,922.0469 436.075,922.875 Q436.9656,923.6875 438.5594,923.6875 Q439.4969,923.6875 440.1531,923.4375 Q440.5438,923.2813 440.9656,922.8438 Q441.2313,922.5781 441.3719,922.5 Q441.5281,922.4219 441.7313,922.4219 Q442.0594,922.4219 442.3094,922.6875 Q442.575,922.9375 442.575,923.2813 Q442.575,923.625 442.2313,924.0313 Q441.7313,924.6094 440.9344,924.9375 Q439.8563,925.3906 438.5594,925.3906 Q437.0438,925.3906 435.8406,924.7656 Q434.8563,924.2656 434.1688,923.2031 Q433.4813,922.125 433.4813,920.8438 L433.4813,919.6875 Q433.4813,918.3594 434.0906,917.2188 Q434.7156,916.0625 435.8094,915.4531 Q436.9031,914.8281 438.1375,914.8281 Q438.8719,914.8281 439.5125,915 Q440.1688,915.1563 440.7156,915.5156 Z " fill="#000000"/><text fill="#000000" font-family="sans-serif" font-size="12" lengthAdjust="spacing" textLength="80" x="452.05" y="924.5508">FoodBeverage</text><line style="stroke:#A80036;stroke-width:1.5;" x1="423.5" x2="534.5" y1="935.6406" y2="935.6406"/><ellipse cx="433.5" cy="946.6406" rx="3" ry="3" style="stroke:#038048;stroke-width:1.0;fill:none;"/><text fill="#000000" font-family="sans-serif" font-size="11" lengthAdjust="spacing" textLength="60" x="442.5" y="951.0596">name: String</text><ellipse cx="433.5" cy="960.4766" rx="3" ry="3" style="stroke:#038048;stroke-width:1.0;fill:none;"/><text fill="#000000" font-family="sans-serif" font-size="11" lengthAdjust="spacing" textLength="87" x="442.5" y="964.8955">description: String</text><line style="stroke:#A80036;stroke-width:1.5;" x1="423.5" x2="534.5" y1="971.3125" y2="971.3125"/><!--MD5=[92749f12d8d6e1c9f5794bd474a40071]
class ordering.PricingOffer--><rect codeLine="129" fill="#FEFECE" filter="url(#f6pv3onahqfj6)" height="89.5078" id="ordering.PricingOffer" style="stroke:#A80036;stroke-width:1.5;" width="249" x="570.5" y="896.6406"/><ellipse cx="658.75" cy="912.6406" fill="#ADD1B2" rx="11" ry="11" style="stroke:#A80036;stroke-width:1.0;"/><path d="M661.5156,908.5156 Q661.6719,908.2969 661.8594,908.1875 Q662.0469,908.0781 662.2656,908.0781 Q662.6406,908.0781 662.875,908.3438 Q663.1094,908.5938 663.1094,909.2031 L663.1094,910.6563 Q663.1094,911.2656 662.875,911.5313 Q662.6406,911.7969 662.2656,911.7969 Q661.9219,911.7969 661.7188,911.5938 Q661.5156,911.4063 661.4063,910.8906 Q661.3594,910.5313 661.1719,910.3438 Q660.8438,909.9688 660.2344,909.75 Q659.625,909.5313 659,909.5313 Q658.2344,909.5313 657.5938,909.8594 Q656.9688,910.1875 656.4688,910.9375 Q655.9844,911.6875 655.9844,912.7188 L655.9844,913.8125 Q655.9844,915.0469 656.875,915.875 Q657.7656,916.6875 659.3594,916.6875 Q660.2969,916.6875 660.9531,916.4375 Q661.3438,916.2813 661.7656,915.8438 Q662.0313,915.5781 662.1719,915.5 Q662.3281,915.4219 662.5313,915.4219 Q662.8594,915.4219 663.1094,915.6875 Q663.375,915.9375 663.375,916.2813 Q663.375,916.625 663.0313,917.0313 Q662.5313,917.6094 661.7344,917.9375 Q660.6563,918.3906 659.3594,918.3906 Q657.8438,918.3906 656.6406,917.7656 Q655.6563,917.2656 654.9688,916.2031 Q654.2813,915.125 654.2813,913.8438 L654.2813,912.6875 Q654.2813,911.3594 654.8906,910.2188 Q655.5156,909.0625 656.6094,908.4531 Q657.7031,907.8281 658.9375,907.8281 Q659.6719,907.8281 660.3125,908 Q660.9688,908.1563 661.5156,908.5156 Z " fill="#000000"/><text fill="#000000" font-family="sans-serif" font-size="12" lengthAdjust="spacing" textLength="64" x="679.25" y="917.5508">PricingOffer</text><line style="stroke:#A80036;stroke-width:1.5;" x1="571.5" x2="818.5" y1="928.6406" y2="928.6406"/><ellipse cx="581.5" cy="939.6406" rx="3" ry="3" style="stroke:#038048;stroke-width:1.0;fill:none;"/><text fill="#000000" font-family="sans-serif" font-size="11" lengthAdjust="spacing" textLength="60" x="590.5" y="944.0596">name: String</text><ellipse cx="581.5" cy="953.4766" rx="3" ry="3" style="stroke:#038048;stroke-width:1.0;fill:none;"/><text fill="#000000" font-family="sans-serif" font-size="11" lengthAdjust="spacing" textLength="119" x="590.5" y="957.8955">size: shared_kernel.Size</text><ellipse cx="581.5" cy="967.3125" rx="3" ry="3" style="stroke:#038048;stroke-width:1.0;fill:none;"/><text fill="#000000" font-family="sans-serif" font-size="11" lengthAdjust="spacing" textLength="223" x="590.5" y="971.7314">currencyValue: shared_kernel.CurrencyValue</text><line style="stroke:#A80036;stroke-width:1.5;" x1="571.5" x2="818.5" y1="978.1484" y2="978.1484"/><!--MD5=[f0966b47224d76768c8398694de625b1]
class kitchen.Kitchen--><rect codeLine="145" fill="#FEFECE" filter="url(#f6pv3onahqfj6)" height="61.8359" id="kitchen.Kitchen" style="stroke:#A80036;stroke-width:1.5;" width="73" x="1682.5" y="315.1406"/><ellipse cx="1697.5" cy="331.1406" fill="#ADD1B2" rx="11" ry="11" style="stroke:#A80036;stroke-width:1.0;"/><path d="M1700.2656,327.0156 Q1700.4219,326.7969 1700.6094,326.6875 Q1700.7969,326.5781 1701.0156,326.5781 Q1701.3906,326.5781 1701.625,326.8438 Q1701.8594,327.0938 1701.8594,327.7031 L1701.8594,329.1563 Q1701.8594,329.7656 1701.625,330.0313 Q1701.3906,330.2969 1701.0156,330.2969 Q1700.6719,330.2969 1700.4688,330.0938 Q1700.2656,329.9063 1700.1563,329.3906 Q1700.1094,329.0313 1699.9219,328.8438 Q1699.5938,328.4688 1698.9844,328.25 Q1698.375,328.0313 1697.75,328.0313 Q1696.9844,328.0313 1696.3438,328.3594 Q1695.7188,328.6875 1695.2188,329.4375 Q1694.7344,330.1875 1694.7344,331.2188 L1694.7344,332.3125 Q1694.7344,333.5469 1695.625,334.375 Q1696.5156,335.1875 1698.1094,335.1875 Q1699.0469,335.1875 1699.7031,334.9375 Q1700.0938,334.7813 1700.5156,334.3438 Q1700.7813,334.0781 1700.9219,334 Q1701.0781,333.9219 1701.2813,333.9219 Q1701.6094,333.9219 1701.8594,334.1875 Q1702.125,334.4375 1702.125,334.7813 Q1702.125,335.125 1701.7813,335.5313 Q1701.2813,336.1094 1700.4844,336.4375 Q1699.4063,336.8906 1698.1094,336.8906 Q1696.5938,336.8906 1695.3906,336.2656 Q1694.4063,335.7656 1693.7188,334.7031 Q1693.0313,333.625 1693.0313,332.3438 L1693.0313,331.1875 Q1693.0313,329.8594 1693.6406,328.7188 Q1694.2656,327.5625 1695.3594,326.9531 Q1696.4531,326.3281 1697.6875,326.3281 Q1698.4219,326.3281 1699.0625,326.5 Q1699.7188,326.6563 1700.2656,327.0156 Z " fill="#000000"/><text fill="#000000" font-family="sans-serif" font-size="12" lengthAdjust="spacing" textLength="41" x="1711.5" y="336.0508">Kitchen</text><line style="stroke:#A80036;stroke-width:1.5;" x1="1683.5" x2="1754.5" y1="347.1406" y2="347.1406"/><text fill="#000000" font-family="sans-serif" font-size="11" lengthAdjust="spacing" textLength="47" x="1688.5" y="362.5596">id: integer</text><line style="stroke:#A80036;stroke-width:1.5;" x1="1683.5" x2="1754.5" y1="368.9766" y2="368.9766"/><!--MD5=[b528c90dd876106aa52d77c4409eac5b]
class kitchen.Recipe--><rect codeLine="179" fill="#FEFECE" filter="url(#f6pv3onahqfj6)" height="61.8359" id="kitchen.Recipe" style="stroke:#A80036;stroke-width:1.5;" width="73" x="926.5" y="910.6406"/><ellipse cx="942.4" cy="926.6406" fill="#ADD1B2" rx="11" ry="11" style="stroke:#A80036;stroke-width:1.0;"/><path d="M945.1656,922.5156 Q945.3219,922.2969 945.5094,922.1875 Q945.6969,922.0781 945.9156,922.0781 Q946.2906,922.0781 946.525,922.3438 Q946.7594,922.5938 946.7594,923.2031 L946.7594,924.6563 Q946.7594,925.2656 946.525,925.5313 Q946.2906,925.7969 945.9156,925.7969 Q945.5719,925.7969 945.3688,925.5938 Q945.1656,925.4063 945.0563,924.8906 Q945.0094,924.5313 944.8219,924.3438 Q944.4938,923.9688 943.8844,923.75 Q943.275,923.5313 942.65,923.5313 Q941.8844,923.5313 941.2438,923.8594 Q940.6188,924.1875 940.1188,924.9375 Q939.6344,925.6875 939.6344,926.7188 L939.6344,927.8125 Q939.6344,929.0469 940.525,929.875 Q941.4156,930.6875 943.0094,930.6875 Q943.9469,930.6875 944.6031,930.4375 Q944.9938,930.2813 945.4156,929.8438 Q945.6813,929.5781 945.8219,929.5 Q945.9781,929.4219 946.1813,929.4219 Q946.5094,929.4219 946.7594,929.6875 Q947.025,929.9375 947.025,930.2813 Q947.025,930.625 946.6813,931.0313 Q946.1813,931.6094 945.3844,931.9375 Q944.3063,932.3906 943.0094,932.3906 Q941.4938,932.3906 940.2906,931.7656 Q939.3063,931.2656 938.6188,930.2031 Q937.9313,929.125 937.9313,927.8438 L937.9313,926.6875 Q937.9313,925.3594 938.5406,924.2188 Q939.1656,923.0625 940.2594,922.4531 Q941.3531,921.8281 942.5875,921.8281 Q943.3219,921.8281 943.9625,922 Q944.6188,922.1563 945.1656,922.5156 Z " fill="#000000"/><text fill="#000000" font-family="sans-serif" font-size="12" lengthAdjust="spacing" textLength="39" x="956.6" y="931.5508">Recipe</text><line style="stroke:#A80036;stroke-width:1.5;" x1="927.5" x2="998.5" y1="942.6406" y2="942.6406"/><ellipse cx="937.5" cy="953.6406" rx="3" ry="3" style="stroke:#038048;stroke-width:1.0;fill:none;"/><text fill="#000000" font-family="sans-serif" font-size="11" lengthAdjust="spacing" textLength="47" x="946.5" y="958.0596">id: integer</text><line style="stroke:#A80036;stroke-width:1.5;" x1="927.5" x2="998.5" y1="964.4766" y2="964.4766"/><!--MD5=[012a1cc1867c13b493ec4058b3e54de2]
class kitchen.UbiquitousLanguage--><rect codeLine="139" fill="#FFFFFF" filter="url(#f6pv3onahqfj6)" height="89.5078" id="kitchen.UbiquitousLanguage" style="stroke:#A80036;stroke-width:1.5;" width="399" x="926.5" y="301.1406"/><ellipse cx="1063.75" cy="317.1406" fill="#EB937F" rx="11" ry="11" style="stroke:#A80036;stroke-width:1.0;"/><path d="M1062.6094,317.9375 L1062.6094,320.4375 L1066.9375,320.4375 L1066.9375,319.5156 Q1066.9375,318.9063 1067.1719,318.6406 Q1067.4219,318.375 1067.7969,318.375 Q1068.1719,318.375 1068.4063,318.6406 Q1068.6406,318.9063 1068.6406,319.5156 L1068.6406,322.1406 L1060.6406,322.1406 Q1060.0156,322.1406 1059.75,321.9063 Q1059.5,321.6719 1059.5,321.2813 Q1059.5,320.9063 1059.7656,320.6719 Q1060.0313,320.4375 1060.6406,320.4375 L1060.9063,320.4375 L1060.9063,313.7813 L1060.6406,313.7813 Q1060.0156,313.7813 1059.75,313.5469 Q1059.5,313.3125 1059.5,312.9219 Q1059.5,312.5469 1059.75,312.3125 Q1060.0156,312.0781 1060.6406,312.0781 L1068.2656,312.0781 L1068.2656,314.6719 Q1068.2656,315.2813 1068.0313,315.5469 Q1067.8125,315.7969 1067.4219,315.7969 Q1067.0469,315.7969 1066.8125,315.5469 Q1066.5781,315.2813 1066.5781,314.6719 L1066.5781,313.7813 L1062.6094,313.7813 L1062.6094,316.2344 L1064.0938,316.2344 Q1064.0938,315.5781 1064.2188,315.3906 Q1064.4844,314.9844 1064.9531,314.9844 Q1065.3281,314.9844 1065.5625,315.25 Q1065.7969,315.5 1065.7969,316.1094 L1065.7969,318.0781 Q1065.7969,318.625 1065.6719,318.8125 Q1065.4063,319.2031 1064.9531,319.2031 Q1064.4844,319.2031 1064.2188,318.7969 Q1064.0938,318.6094 1064.0938,317.9375 L1062.6094,317.9375 Z " fill="#000000"/><text fill="#000000" font-family="sans-serif" font-size="12" lengthAdjust="spacing" textLength="116" x="1084.25" y="322.0508">UbiquitousLanguage</text><line style="stroke:#A80036;stroke-width:1.5;" x1="927.5" x2="1324.5" y1="333.1406" y2="333.1406"/><text fill="#000000" font-family="sans-serif" font-size="11" lengthAdjust="spacing" textLength="387" x="932.5" y="348.5596">Kitchen: the physical location where an order may be prepared for the customer</text><text fill="#000000" font-family="sans-serif" font-size="11" lengthAdjust="spacing" textLength="202" x="932.5" y="362.3955">Order: A list of order items for a customer</text><text fill="#000000" font-family="sans-serif" font-size="11" lengthAdjust="spacing" textLength="244" x="932.5" y="376.2314">Recipe: the instructions for preparing an OrderItem</text><line style="stroke:#A80036;stroke-width:1.5;" x1="927.5" x2="1324.5" y1="382.6484" y2="382.6484"/><!--MD5=[3add69ed782761e0fe10d2de679017aa]
class kitchen.Order--><rect codeLine="158" fill="#FEFECE" filter="url(#f6pv3onahqfj6)" height="61.8359" id="kitchen.Order" style="stroke:#A80036;stroke-width:1.5;" width="73" x="1008.5" y="589.1406"/><ellipse cx="1028" cy="605.1406" fill="#ADD1B2" rx="11" ry="11" style="stroke:#A80036;stroke-width:1.0;"/><path d="M1030.7656,601.0156 Q1030.9219,600.7969 1031.1094,600.6875 Q1031.2969,600.5781 1031.5156,600.5781 Q1031.8906,600.5781 1032.125,600.8438 Q1032.3594,601.0938 1032.3594,601.7031 L1032.3594,603.1563 Q1032.3594,603.7656 1032.125,604.0313 Q1031.8906,604.2969 1031.5156,604.2969 Q1031.1719,604.2969 1030.9688,604.0938 Q1030.7656,603.9063 1030.6563,603.3906 Q1030.6094,603.0313 1030.4219,602.8438 Q1030.0938,602.4688 1029.4844,602.25 Q1028.875,602.0313 1028.25,602.0313 Q1027.4844,602.0313 1026.8438,602.3594 Q1026.2188,602.6875 1025.7188,603.4375 Q1025.2344,604.1875 1025.2344,605.2188 L1025.2344,606.3125 Q1025.2344,607.5469 1026.125,608.375 Q1027.0156,609.1875 1028.6094,609.1875 Q1029.5469,609.1875 1030.2031,608.9375 Q1030.5938,608.7813 1031.0156,608.3438 Q1031.2813,608.0781 1031.4219,608 Q1031.5781,607.9219 1031.7813,607.9219 Q1032.1094,607.9219 1032.3594,608.1875 Q1032.625,608.4375 1032.625,608.7813 Q1032.625,609.125 1032.2813,609.5313 Q1031.7813,610.1094 1030.9844,610.4375 Q1029.9063,610.8906 1028.6094,610.8906 Q1027.0938,610.8906 1025.8906,610.2656 Q1024.9063,609.7656 1024.2188,608.7031 Q1023.5313,607.625 1023.5313,606.3438 L1023.5313,605.1875 Q1023.5313,603.8594 1024.1406,602.7188 Q1024.7656,601.5625 1025.8594,600.9531 Q1026.9531,600.3281 1028.1875,600.3281 Q1028.9219,600.3281 1029.5625,600.5 Q1030.2188,600.6563 1030.7656,601.0156 Z " fill="#000000"/><text fill="#000000" font-family="sans-serif" font-size="12" lengthAdjust="spacing" textLength="31" x="1043" y="610.0508">Order</text><line style="stroke:#A80036;stroke-width:1.5;" x1="1009.5" x2="1080.5" y1="621.1406" y2="621.1406"/><ellipse cx="1019.5" cy="632.1406" rx="3" ry="3" style="stroke:#038048;stroke-width:1.0;fill:none;"/><text fill="#000000" font-family="sans-serif" font-size="11" lengthAdjust="spacing" textLength="47" x="1028.5" y="636.5596">id: integer</text><line style="stroke:#A80036;stroke-width:1.5;" x1="1009.5" x2="1080.5" y1="642.9766" y2="642.9766"/><path d="M1361,333.1406 L1361,359.4922 A0,0 0 0 0 1361,359.4922 L1647,359.4922 A0,0 0 0 0 1647,359.4922 L1647,351.1406 L1682.26,346.1406 L1647,343.1406 L1647,343.1406 L1637,333.1406 L1361,333.1406 A0,0 0 0 0 1361,333.1406 " fill="#FBFB77" filter="url(#f6pv3onahqfj6)" style="stroke:#A80036;stroke-width:1.0;"/><path d="M1637,333.1406 L1637,343.1406 L1647,343.1406 L1637,333.1406 " fill="#FBFB77" style="stroke:#A80036;stroke-width:1.0;"/><text fill="#000000" font-family="sans-serif" font-size="13" lengthAdjust="spacing" textLength="265" x="1367" y="351.6357">emits shared_kernel.OrderReadyForCustomer</text><path d="M1482,607.1406 L1482,633.4922 A0,0 0 0 0 1482,633.4922 L1756,633.4922 A0,0 0 0 0 1756,633.4922 L1756,617.1406 L1746,607.1406 L1627.43,607.1406 L1707.92,377.2906 L1619.43,607.1406 L1482,607.1406 A0,0 0 0 0 1482,607.1406 " fill="#FBFB77" filter="url(#f6pv3onahqfj6)" style="stroke:#A80036;stroke-width:1.0;"/><path d="M1746,607.1406 L1746,617.1406 L1756,617.1406 L1746,607.1406 " fill="#FBFB77" style="stroke:#A80036;stroke-width:1.0;"/><text fill="#000000" font-family="sans-serif" font-size="13" lengthAdjust="spacing" textLength="253" x="1488" y="625.6357">creates Order on sharedKernel.OrderPlaced</text><!--MD5=[2843973301a97ba200d548a2768503c6]
class kitchen.OrderItem--><rect codeLine="164" fill="#FEFECE" filter="url(#f6pv3onahqfj6)" height="103.3438" id="kitchen.OrderItem" style="stroke:#A80036;stroke-width:1.5;" width="150" x="970" y="732.6406"/><ellipse cx="1013.35" cy="748.6406" fill="#ADD1B2" rx="11" ry="11" style="stroke:#A80036;stroke-width:1.0;"/><path d="M1016.1156,744.5156 Q1016.2719,744.2969 1016.4594,744.1875 Q1016.6469,744.0781 1016.8656,744.0781 Q1017.2406,744.0781 1017.475,744.3438 Q1017.7094,744.5938 1017.7094,745.2031 L1017.7094,746.6563 Q1017.7094,747.2656 1017.475,747.5313 Q1017.2406,747.7969 1016.8656,747.7969 Q1016.5219,747.7969 1016.3188,747.5938 Q1016.1156,747.4063 1016.0063,746.8906 Q1015.9594,746.5313 1015.7719,746.3438 Q1015.4438,745.9688 1014.8344,745.75 Q1014.225,745.5313 1013.6,745.5313 Q1012.8344,745.5313 1012.1938,745.8594 Q1011.5688,746.1875 1011.0688,746.9375 Q1010.5844,747.6875 1010.5844,748.7188 L1010.5844,749.8125 Q1010.5844,751.0469 1011.475,751.875 Q1012.3656,752.6875 1013.9594,752.6875 Q1014.8969,752.6875 1015.5531,752.4375 Q1015.9438,752.2813 1016.3656,751.8438 Q1016.6313,751.5781 1016.7719,751.5 Q1016.9281,751.4219 1017.1313,751.4219 Q1017.4594,751.4219 1017.7094,751.6875 Q1017.975,751.9375 1017.975,752.2813 Q1017.975,752.625 1017.6313,753.0313 Q1017.1313,753.6094 1016.3344,753.9375 Q1015.2563,754.3906 1013.9594,754.3906 Q1012.4438,754.3906 1011.2406,753.7656 Q1010.2563,753.2656 1009.5688,752.2031 Q1008.8813,751.125 1008.8813,749.8438 L1008.8813,748.6875 Q1008.8813,747.3594 1009.4906,746.2188 Q1010.1156,745.0625 1011.2094,744.4531 Q1012.3031,743.8281 1013.5375,743.8281 Q1014.2719,743.8281 1014.9125,744 Q1015.5688,744.1563 1016.1156,744.5156 Z " fill="#000000"/><text fill="#000000" font-family="sans-serif" font-size="12" lengthAdjust="spacing" textLength="55" x="1033.65" y="753.5508">OrderItem</text><line style="stroke:#A80036;stroke-width:1.5;" x1="971" x2="1119" y1="764.6406" y2="764.6406"/><ellipse cx="981" cy="775.6406" rx="3" ry="3" style="stroke:#038048;stroke-width:1.0;fill:none;"/><text fill="#000000" font-family="sans-serif" font-size="11" lengthAdjust="spacing" textLength="77" x="990" y="780.0596">quantity: integer</text><ellipse cx="981" cy="789.4766" rx="3" ry="3" style="stroke:#038048;stroke-width:1.0;fill:none;"/><text fill="#000000" font-family="sans-serif" font-size="11" lengthAdjust="spacing" textLength="119" x="990" y="793.8955">size: shared_kernel.Size</text><ellipse cx="981" cy="803.3125" rx="3" ry="3" style="stroke:#038048;stroke-width:1.0;fill:none;"/><text fill="#000000" font-family="sans-serif" font-size="11" lengthAdjust="spacing" textLength="124" x="990" y="807.7314">specialInstructions: String</text><line style="stroke:#A80036;stroke-width:1.5;" x1="971" x2="1119" y1="814.1484" y2="814.1484"/><text fill="#000000" font-family="sans-serif" font-size="11" lengthAdjust="spacing" textLength="77" x="976" y="829.5674">void setReady()</text><!--MD5=[61d2781216e7ccb668c7f77bd3aa48b9]
class kitchen.KitchenStatus--><rect codeLine="173" fill="#FEFECE" filter="url(#f6pv3onahqfj6)" height="89.5078" id="kitchen.KitchenStatus" style="stroke:#A80036;stroke-width:1.5;" width="108" x="1035" y="896.6406"/><ellipse cx="1050" cy="912.6406" fill="#EB937F" rx="11" ry="11" style="stroke:#A80036;stroke-width:1.0;"/><path d="M1048.8594,913.4375 L1048.8594,915.9375 L1053.1875,915.9375 L1053.1875,915.0156 Q1053.1875,914.4063 1053.4219,914.1406 Q1053.6719,913.875 1054.0469,913.875 Q1054.4219,913.875 1054.6563,914.1406 Q1054.8906,914.4063 1054.8906,915.0156 L1054.8906,917.6406 L1046.8906,917.6406 Q1046.2656,917.6406 1046,917.4063 Q1045.75,917.1719 1045.75,916.7813 Q1045.75,916.4063 1046.0156,916.1719 Q1046.2813,915.9375 1046.8906,915.9375 L1047.1563,915.9375 L1047.1563,909.2813 L1046.8906,909.2813 Q1046.2656,909.2813 1046,909.0469 Q1045.75,908.8125 1045.75,908.4219 Q1045.75,908.0469 1046,907.8125 Q1046.2656,907.5781 1046.8906,907.5781 L1054.5156,907.5781 L1054.5156,910.1719 Q1054.5156,910.7813 1054.2813,911.0469 Q1054.0625,911.2969 1053.6719,911.2969 Q1053.2969,911.2969 1053.0625,911.0469 Q1052.8281,910.7813 1052.8281,910.1719 L1052.8281,909.2813 L1048.8594,909.2813 L1048.8594,911.7344 L1050.3438,911.7344 Q1050.3438,911.0781 1050.4688,910.8906 Q1050.7344,910.4844 1051.2031,910.4844 Q1051.5781,910.4844 1051.8125,910.75 Q1052.0469,911 1052.0469,911.6094 L1052.0469,913.5781 Q1052.0469,914.125 1051.9219,914.3125 Q1051.6563,914.7031 1051.2031,914.7031 Q1050.7344,914.7031 1050.4688,914.2969 Q1050.3438,914.1094 1050.3438,913.4375 L1048.8594,913.4375 Z " fill="#000000"/><text fill="#000000" font-family="sans-serif" font-size="12" lengthAdjust="spacing" textLength="76" x="1064" y="917.5508">KitchenStatus</text><line style="stroke:#A80036;stroke-width:1.5;" x1="1036" x2="1142" y1="928.6406" y2="928.6406"/><text fill="#000000" font-family="sans-serif" font-size="11" lengthAdjust="spacing" textLength="43" x="1041" y="944.0596">PENDING</text><text fill="#000000" font-family="sans-serif" font-size="11" lengthAdjust="spacing" textLength="57" x="1041" y="957.8955">PREPARING</text><text fill="#000000" font-family="sans-serif" font-size="11" lengthAdjust="spacing" textLength="36" x="1041" y="971.7314">READY</text><line style="stroke:#A80036;stroke-width:1.5;" x1="1036" x2="1142" y1="978.1484" y2="978.1484"/><path d="M2684,117.1406 L2684,143.4922 L2814,143.4922 L2814,127.1406 L2804,117.1406 L2684,117.1406 " fill="#D3D3D3" filter="url(#f6pv3onahqfj6)" style="stroke:#A80036;stroke-width:1.0;"/><path d="M2804,117.1406 L2804,127.1406 L2814,127.1406 L2804,117.1406 " fill="#D3D3D3" style="stroke:#A80036;stroke-width:1.0;"/><text fill="#000000" font-family="sans-serif" font-size="13" lengthAdjust="spacing" textLength="109" x="2690" y="135.6357">generic subdomain</text><path d="M2870,117.1406 L2870,143.4922 L3000,143.4922 L3000,127.1406 L2990,117.1406 L2870,117.1406 " fill="#D3D3D3" filter="url(#f6pv3onahqfj6)" style="stroke:#A80036;stroke-width:1.0;"/><path d="M2990,117.1406 L2990,127.1406 L3000,127.1406 L2990,117.1406 " fill="#D3D3D3" style="stroke:#A80036;stroke-width:1.0;"/><text fill="#000000" font-family="sans-serif" font-size="13" lengthAdjust="spacing" textLength="109" x="2876" y="135.6357">generic subdomain</text><path d="M3056,117.1406 L3056,143.4922 L3186,143.4922 L3186,127.1406 L3176,117.1406 L3056,117.1406 " fill="#D3D3D3" filter="url(#f6pv3onahqfj6)" style="stroke:#A80036;stroke-width:1.0;"/><path d="M3176,117.1406 L3176,127.1406 L3186,127.1406 L3176,117.1406 " fill="#D3D3D3" style="stroke:#A80036;stroke-width:1.0;"/><text fill="#000000" font-family="sans-serif" font-size="13" lengthAdjust="spacing" textLength="109" x="3062" y="135.6357">generic subdomain</text><path d="M3253,117.1406 L3253,143.4922 L3383,143.4922 L3383,127.1406 L3373,117.1406 L3253,117.1406 " fill="#D3D3D3" filter="url(#f6pv3onahqfj6)" style="stroke:#A80036;stroke-width:1.0;"/><path d="M3373,117.1406 L3373,127.1406 L3383,127.1406 L3373,117.1406 " fill="#D3D3D3" style="stroke:#A80036;stroke-width:1.0;"/><text fill="#000000" font-family="sans-serif" font-size="13" lengthAdjust="spacing" textLength="109" x="3259" y="135.6357">generic subdomain</text><path d="M3451,117.1406 L3451,143.4922 L3581,143.4922 L3581,127.1406 L3571,117.1406 L3451,117.1406 " fill="#D3D3D3" filter="url(#f6pv3onahqfj6)" style="stroke:#A80036;stroke-width:1.0;"/><path d="M3571,117.1406 L3571,127.1406 L3581,127.1406 L3571,117.1406 " fill="#D3D3D3" style="stroke:#A80036;stroke-width:1.0;"/><text fill="#000000" font-family="sans-serif" font-size="13" lengthAdjust="spacing" textLength="109" x="3457" y="135.6357">generic subdomain</text><path d="M3637,117.1406 L3637,143.4922 L3767,143.4922 L3767,127.1406 L3757,117.1406 L3637,117.1406 " fill="#D3D3D3" filter="url(#f6pv3onahqfj6)" style="stroke:#A80036;stroke-width:1.0;"/><path d="M3757,117.1406 L3757,127.1406 L3767,127.1406 L3757,117.1406 " fill="#D3D3D3" style="stroke:#A80036;stroke-width:1.0;"/><text fill="#000000" font-family="sans-serif" font-size="13" lengthAdjust="spacing" textLength="109" x="3643" y="135.6357">generic subdomain</text><!--MD5=[a4d77dec13eaa99db2cfd6ef6fc7acaa]
link shared_kernel.Size to shared_kernel.MeasurementUnit--><path codeLine="14" d="M2026,161.3506 C2026,193.9506 2026,246.6706 2026,287.3006 " fill="none" id="shared_kernel.Size-shared_kernel.MeasurementUnit" style="stroke:#A80036;stroke-width:1.0;stroke-dasharray:7.0,7.0;"/><text fill="#000000" font-family="sans-serif" font-size="13" lengthAdjust="spacing" textLength="28" x="2027" y="240.1357">uses</text><text fill="#000000" font-family="sans-serif" font-size="13" lengthAdjust="spacing" textLength="7" x="2018.5734" y="276.6601">1</text><!--MD5=[8c37c082cb61b17a04481dfaa48ade32]
link shared_kernel.CurrencyValue to shared_kernel.Currency--><path codeLine="27" d="M1872,161.3506 C1872,197.7506 1872,259.2306 1872,300.9706 " fill="none" id="shared_kernel.CurrencyValue-shared_kernel.Currency" style="stroke:#A80036;stroke-width:1.0;stroke-dasharray:7.0,7.0;"/><text fill="#000000" font-family="sans-serif" font-size="13" lengthAdjust="spacing" textLength="28" x="1873" y="240.1357">uses</text><text fill="#000000" font-family="sans-serif" font-size="13" lengthAdjust="spacing" textLength="7" x="1864.4641" y="290.3887">1</text><!--MD5=[869186e608e0bacda5c246856a092aaf]
link ordering.Location$$$LEFT to ordering.Location--><!--MD5=[7dc977122fcd37d003a4a07343efeae5]
reverse link ordering.Location to ordering.Menu--><path codeLine="82" d="M734.27,193.1006 C732.52,193.9906 730.76,194.8406 729,195.6406 C577.11,264.3306 467.85,130.8906 359,257.1406 C313.61,309.7906 326.74,396.3606 340.68,448.5906 " fill="none" id="ordering.Location-backto-ordering.Menu" style="stroke:#A80036;stroke-width:1.0;"/><polygon fill="#A80036" points="745.65,186.6406,738.4577,186.12,735.2109,192.5588,742.4031,193.0794,745.65,186.6406" style="stroke:#A80036;stroke-width:1.0;"/><text fill="#000000" font-family="sans-serif" font-size="13" lengthAdjust="spacing" textLength="20" x="316.804" y="437.6981">0..*</text><!--MD5=[548f5ec58a1c6ecce9e6f4a82bdd7267]
reverse link ordering.Location to ordering.Order--><path codeLine="83" d="M743.41,205.8506 C724.45,227.7906 703.75,251.7306 684.95,273.4806 " fill="none" id="ordering.Location-backto-ordering.Order" style="stroke:#A80036;stroke-width:1.0;"/><polygon fill="#A80036" points="751.99,195.9306,745.0397,197.8524,744.1404,205.0072,751.0907,203.0854,751.99,195.9306" style="stroke:#A80036;stroke-width:1.0;"/><text fill="#000000" font-family="sans-serif" font-size="13" lengthAdjust="spacing" textLength="20" x="670.3073" y="262.6835">0..*</text><!--MD5=[a18c09354694d4a2696ca8f95bc43c4c]
reverse link ordering.Location to kitchen.Kitchen--><path codeLine="84" d="M883.2,134.1406 C1067.66,142.7406 1536.81,172.5706 1665,257.1406 C1685.65,270.7606 1699.73,295.2706 1708.32,314.9706 " fill="none" id="ordering.Location-backto-kitchen.Kitchen" style="stroke:#A80036;stroke-width:1.0;"/><polygon fill="#FFFFFF" points="870.16,133.5406,875.969,137.8133,882.1472,134.0945,876.3382,129.8218,870.16,133.5406" style="stroke:#A80036;stroke-width:1.0;"/><text fill="#000000" font-family="sans-serif" font-size="13" lengthAdjust="spacing" textLength="20" x="1684.0548" y="304.4401">1..*</text><!--MD5=[61bc6b74e509b396eeee8d49e8cceafb]
reverse link ordering.Menu to ordering.MenuItem--><path codeLine="92" d="M357.96,551.8606 C361.57,587.6606 369.52,633.9606 387,671.6406 C403.05,706.2406 432.48,739.0606 453.73,760.0206 " fill="none" id="ordering.Menu-backto-ordering.MenuItem" style="stroke:#A80036;stroke-width:1.0;"/><polygon fill="#FFFFFF" points="356.78,538.6906,353.3371,545.0268,357.8617,550.6418,361.3046,544.3056,356.78,538.6906" style="stroke:#A80036;stroke-width:1.0;"/><text fill="#000000" font-family="sans-serif" font-size="13" lengthAdjust="spacing" textLength="20" x="424.6921" y="749.33">0..*</text><!--MD5=[41a1e86a3d12ba7d128e46deb70f1330]
reverse link ordering.Order to ordering.OrderItem--><path codeLine="103" d="M618.98,431.8806 C616.36,480.8806 612.91,533.8306 610,538.6406 C606.18,544.9506 581.26,560.8106 554.15,576.8006 " fill="none" id="ordering.Order-backto-ordering.OrderItem" style="stroke:#A80036;stroke-width:1.0;"/><polygon fill="#A80036" points="619.66,418.8806,615.3488,424.6611,619.0265,430.8639,623.3377,425.0834,619.66,418.8806" style="stroke:#A80036;stroke-width:1.0;"/><text fill="#000000" font-family="sans-serif" font-size="13" lengthAdjust="spacing" textLength="20" x="561.0716" y="568.7806">0..*</text><!--MD5=[322bb88a8305d6b543d1df2a0a4718e9]
reverse link ordering.Order to ordering.OrderStatus--><path codeLine="104" d="M627.68,432.0506 C630.3,479.4406 633.44,536.5106 635.57,575.0606 " fill="none" id="ordering.Order-backto-ordering.OrderStatus" style="stroke:#A80036;stroke-width:1.0;"/><polygon fill="#A80036" points="626.96,418.9606,623.2956,425.1713,627.6191,430.9425,631.2835,424.7319,626.96,418.9606" style="stroke:#A80036;stroke-width:1.0;"/><text fill="#000000" font-family="sans-serif" font-size="13" lengthAdjust="spacing" textLength="7" x="627.6249" y="564.1634">1</text><!--MD5=[9b06634e7d1fc6c89e01e9fee03c4155]
reverse link ordering.OrderItem to ordering.MenuItem--><path codeLine="118" d="M479,685.0806 C479,711.5206 479,740.5106 479,760.0606 " fill="none" id="ordering.OrderItem-backto-ordering.MenuItem" style="stroke:#A80036;stroke-width:1.0;"/><polygon fill="#FFFFFF" points="479,671.9506,475,677.9506,479,683.9506,483,677.9506,479,671.9506" style="stroke:#A80036;stroke-width:1.0;"/><text fill="#000000" font-family="sans-serif" font-size="13" lengthAdjust="spacing" textLength="7" x="471.1031" y="749.3803">1</text><!--MD5=[a075b0f8c9613c11e605ef40705e42d5]
reverse link ordering.MenuItem to ordering.FoodBeverage--><path codeLine="120" d="M479,821.5806 C479,846.2606 479,878.7806 479,903.5906 " fill="none" id="ordering.MenuItem-backto-ordering.FoodBeverage" style="stroke:#A80036;stroke-width:1.0;"/><polygon fill="#A80036" points="479,808.4206,475,814.4206,479,820.4206,483,814.4206,479,808.4206" style="stroke:#A80036;stroke-width:1.0;"/><text fill="#000000" font-family="sans-serif" font-size="13" lengthAdjust="spacing" textLength="20" x="457.1563" y="892.6579">1..*</text><!--MD5=[7cc19f8f58ddbfd02d84efeaf8169ffd]
reverse link ordering.MenuItem to ordering.PricingOffer--><path codeLine="121" d="M522.11,816.1806 C554.08,839.1906 598.12,870.8906 633.74,896.5406 " fill="none" id="ordering.MenuItem-backto-ordering.PricingOffer" style="stroke:#A80036;stroke-width:1.0;"/><polygon fill="#A80036" points="511.34,808.4206,513.8725,815.1724,521.0789,815.4316,518.5464,808.6798,511.34,808.4206" style="stroke:#A80036;stroke-width:1.0;"/><text fill="#000000" font-family="sans-serif" font-size="13" lengthAdjust="spacing" textLength="20" x="602.3829" y="885.6402">1..*</text><!--MD5=[a9c9232c36df9006300e33aae561a69b]
reverse link ordering.FoodBeverage to kitchen.Recipe--><path codeLine="127" d="M523.62,894.5506 C537.43,883.0206 553.51,872.2406 570.5,866.1406 C632.82,843.7506 806,844.2406 868.5,866.1406 C893.87,875.0306 917.49,893.9006 934.78,910.5606 " fill="none" id="ordering.FoodBeverage-backto-kitchen.Recipe" style="stroke:#A80036;stroke-width:1.0;"/><polygon fill="#FFFFFF" points="513.53,903.4506,520.676,902.4841,522.5323,895.516,515.3863,896.4825,513.53,903.4506" style="stroke:#A80036;stroke-width:1.0;"/><text fill="#000000" font-family="sans-serif" font-size="13" lengthAdjust="spacing" textLength="7" x="920.8413" y="899.5634">1</text><!--MD5=[e5fef25ee39939c1aba492912c210439]
reverse link kitchen.Kitchen to kitchen.Order--><path codeLine="148" d="M1698.83,389.0706 C1690.16,403.3606 1678.81,418.3206 1665,428.6406 C1476.94,569.2006 1183.95,607.1706 1081.69,616.4206 " fill="none" id="kitchen.Kitchen-backto-kitchen.Order" style="stroke:#A80036;stroke-width:1.0;"/><polygon fill="#A80036" points="1705.48,377.3306,1699.0412,380.5775,1699.5619,387.7698,1706.0006,384.5229,1705.48,377.3306" style="stroke:#A80036;stroke-width:1.0;"/><text fill="#000000" font-family="sans-serif" font-size="13" lengthAdjust="spacing" textLength="20" x="1089.423" y="612.0173">0..*</text><!--MD5=[cfdc2f3fee4c9621872330d803161f3e]
reverse link kitchen.Order to ordering.Order--><path codeLine="161" d="M997.11,588.2706 C933.63,547.3606 819.67,473.9006 734.15,418.7806 " fill="none" id="kitchen.Order-backto-ordering.Order" style="stroke:#A80036;stroke-width:1.0;"/><polygon fill="#FFFFFF" points="1008.36,595.5206,1005.4834,588.9081,998.2731,589.0202,1001.1498,595.6327,1008.36,595.5206" style="stroke:#A80036;stroke-width:1.0;"/><text fill="#000000" font-family="sans-serif" font-size="13" lengthAdjust="spacing" textLength="7" x="737.4104" y="439.9856">1</text><!--MD5=[184345400173c1e9dc5bf30071cc740a]
reverse link kitchen.Order to kitchen.OrderItem--><path codeLine="162" d="M1045,664.3106 C1045,685.2906 1045,710.6306 1045,732.5206 " fill="none" id="kitchen.Order-backto-kitchen.OrderItem" style="stroke:#A80036;stroke-width:1.0;"/><polygon fill="#A80036" points="1045,651.2306,1041,657.2306,1045,663.2306,1049,657.2306,1045,651.2306" style="stroke:#A80036;stroke-width:1.0;"/><text fill="#000000" font-family="sans-serif" font-size="13" lengthAdjust="spacing" textLength="20" x="1023.5938" y="721.6322">0..*</text><!--MD5=[3e7c1a565aa19ce97f12eae0b0f454dd]
reverse link kitchen.OrderItem to kitchen.Recipe--><path codeLine="170" d="M1011.93,847.8506 C1000.53,869.4706 988.28,892.6906 978.89,910.5006 " fill="none" id="kitchen.OrderItem-backto-kitchen.Recipe" style="stroke:#A80036;stroke-width:1.0;"/><polygon fill="#FFFFFF" points="1018.15,836.0606,1011.8114,839.499,1012.5475,846.6725,1018.886,843.2341,1018.15,836.0606" style="stroke:#A80036;stroke-width:1.0;"/><text fill="#000000" font-family="sans-serif" font-size="13" lengthAdjust="spacing" textLength="7" x="974.4454" y="899.9763">1</text><!--MD5=[6a7bc6bea2b40d678943ad19fd9899a6]
reverse link kitchen.OrderItem to kitchen.KitchenStatus--><path codeLine="171" d="M1062.98,848.6806 C1067.51,864.7006 1072.28,881.5606 1076.48,896.4006 " fill="none" id="kitchen.OrderItem-backto-kitchen.KitchenStatus" style="stroke:#A80036;stroke-width:1.0;"/><polygon fill="#FFFFFF" points="1059.41,836.0606,1057.1905,842.9216,1062.67,847.6093,1064.8896,840.7483,1059.41,836.0606" style="stroke:#A80036;stroke-width:1.0;"/><text fill="#000000" font-family="sans-serif" font-size="13" lengthAdjust="spacing" textLength="7" x="1067.0269" y="885.808">1</text><!--MD5=[4c8f806f98a201e53c052ba66a0c5d16]
link shared_kernel.UbiquitousLanguage to shared_kernel.OrderPlaced--><!--MD5=[67a60c4a59825261f9b856bc8e935b33]
link shared_kernel.UbiquitousLanguage to shared_kernel.OrderPaid--><!--MD5=[fd934cb0363ddbc93ab842a16f601f8c]
link shared_kernel.OrderPaid to shared_kernel.OrderReadyForCustomer--><!--MD5=[de9c95c770e119a4f24136d0865d666b]
@startuml

title Coffee Shop Model

namespace shared_kernel {

  enum UbiquitousLanguage #White {
    Size: a physical amount of something in MeasurementUnits
    CurrencyValue: some amount of a given currency
  }

  class Size {
    +quanity: BigDecimal
  }
  Size .. "1" MeasurementUnit: uses

  enum MeasurementUnit {
    PIECES
    KILOGRAMS
    POUNDS
    LITRES
    FLUID_OUNCE
  }

  class CurrencyValue {
    +quanity: BigDecimal
  }
  CurrencyValue .. "1" Currency: uses

  enum Currency {
    US_DOLLAR
    MEXICAN_PESO
    BITCOIN
  }

  class OrderPlaced <<event>> {
    +locationId: integer
    +orderId: integer
    +currencyValue: CurrencyValue
    +items: ordering.MenuItem[]
    +dateTime: ZonedDateTime
  }

  class OrderPaid <<event>> {
    +locationId: integer
    +orderId: integer
    +dateTime: ZonedDateTime
  }

  class OrderReadyForCustomer <<event>> {
    +kitchenOrderId: integer
    +locationId: integer
    +orderId: integer
    +dateTime: ZonedDateTime
  }

}

namespace ordering {

  enum UbiquitousLanguage #White {
    Location: the physical restaurant where an order may be placed
    Menu: A list of menu items that may change over time
    Order: A list of order items for a customer, may change before the order is placed
    FoodBeverage: Something that a customer might order from a coffee shop, e.g. coffee
    PricingOffer: The price for which a given quantity of FoodBeverage may be purchased
  }

  class Location {
    +id: integer
    +name: String

    Menu createMenu()
    void deleteMenu(Menu)

    Order createOrder()
  }

  note left of Location::submitForPayment
    emits shared_kernel.OrderPlaced
  end note

  Location *- - "0..*" Menu
  Location *- - "0..*" Order
  Location o- - "1..*" kitchen.Kitchen
  

  class Menu {
    +id: integer
    void addMenuItem(toMenu: Menu, foodBeverages: FoodBeverage[], pricingOffers: PricingOffer[])
    void removeMenuItem(fromMenu: Menu, menuItem: MenuItem)
  }
  Menu o- - "0..*" MenuItem

  class Order {
    +id: integer
    +customerName: String
    void addOrderItem(toOrder: Order, menuItem: MenuItem, quantity: integer, specialInstructions: String)
    void removeOrderItem(fromOrder: Order, orderItem: OrderItem)
    CurrencyValue calculatePrice(order: Order)
    void submitForPayment(order: Order)
    void cancelOrder(order: Order)
  }
  Order *- - "0..*" OrderItem
  Order *- - "1" OrderStatus

  enum OrderStatus {
    RECEIVING
    SUBMITTED
    CANCELLED
  }

  class OrderItem {
    +id: integer
    +specialInstructions: String
    +quantity: integer
    +size: shared_kernel.Size
  }
  OrderItem o- - "1" MenuItem

  MenuItem *- - "1..*" FoodBeverage
  MenuItem *- - "1..*" PricingOffer

  class FoodBeverage {
    +name: String
    +description: String
  }
  FoodBeverage o- - "1" kitchen.Recipe

  class PricingOffer {
    +name: String
    +size: shared_kernel.Size
    +currencyValue: shared_kernel.CurrencyValue
  }

}

namespace kitchen {

  enum UbiquitousLanguage #White {
    Kitchen: the physical location where an order may be prepared for the customer
    Order: A list of order items for a customer
    Recipe: the instructions for preparing an OrderItem
  }

  class Kitchen {
    id: integer
  }
  Kitchen *- - "0..*" Order

  note left of Kitchen
    emits shared_kernel.OrderReadyForCustomer
  end note

  note bottom of Kitchen
    creates Order on sharedKernel.OrderPlaced
  end note

  class Order {
    +id: integer
  }
  Order o- - "1" ordering.Order
  Order *- - "0..*" OrderItem

  class OrderItem {
    +quantity: integer
    +size: shared_kernel.Size
    +specialInstructions: String
    void setReady()
  }
  OrderItem o- - "1" Recipe
  OrderItem o- - "1" KitchenStatus

  enum KitchenStatus {
    PENDING
    PREPARING
    READY
  }

  class Recipe {
    +id: integer
  }

}

namespace payment #LightGrey {
  note "generic subdomain" as n1 #LightGrey
}

namespace inventory #LightGrey {
  note "generic subdomain" as n1 #LightGrey
}

namespace suppliers #LightGrey {
  note "generic subdomain" as n1 #LightGrey
}

namespace workforce_management #LightGrey {
  note "generic subdomain" as n1 #LightGrey
}

namespace accounting #LightGrey {
  note "generic subdomain" as n1 #LightGrey
}

namespace marketing #LightGrey {
  note "generic subdomain" as n1 #LightGrey
}

@enduml

PlantUML version 1.2021.7(Sun May 23 08:40:07 EDT 2021)
(GPL source distribution)
Java Runtime: OpenJDK Runtime Environment
JVM: OpenJDK 64-Bit Server VM
Default Encoding: Cp1252
Language: en
Country: US
--></g></svg>