<?xml version="1.0" encoding="UTF-8" standalone="no"?><svg xmlns="http://www.w3.org/2000/svg" xmlns:xlink="http://www.w3.org/1999/xlink" contentScriptType="application/ecmascript" contentStyleType="text/css" height="1219px" preserveAspectRatio="none" style="width:1935px;height:1219px;background:#FFFFFF;" version="1.1" viewBox="0 0 1935 1219" width="1935px" zoomAndPan="magnify"><defs><filter height="300%" id="f12gfiwuygsv3e" width="300%" x="-1" y="-1"><feGaussianBlur result="blurOut" stdDeviation="2.0"/><feColorMatrix in="blurOut" result="blurOut2" type="matrix" values="0 0 0 0 0 0 0 0 0 0 0 0 0 0 0 0 0 0 .4 0"/><feOffset dx="4.0" dy="4.0" in="blurOut2" result="blurOut3"/><feBlend in="SourceGraphic" in2="blurOut3" mode="normal"/></filter></defs><g><text fill="#000000" font-family="sans-serif" font-size="18" lengthAdjust="spacing" textLength="168" x="877" y="16.708">Coffee Shop Model</text><!--MD5=[861f2356a796e84983ee1daa1a607846]
cluster shared_kernel--><polygon fill="#FFFFFF" filter="url(#f12gfiwuygsv3e)" points="166,880.9531,284,880.9531,291,903.25,935,903.25,935,1212.9531,166,1212.9531,166,880.9531" style="stroke:#000000;stroke-width:1.5;"/><line style="stroke:#000000;stroke-width:1.5;" x1="166" x2="291" y1="903.25" y2="903.25"/><text fill="#000000" font-family="sans-serif" font-size="14" font-weight="bold" lengthAdjust="spacing" textLength="112" x="170" y="895.9482">shared_kernel</text><!--MD5=[e9467d9b91a37903b06cf4fbf2352c88]
cluster ordering--><polygon fill="#FFFFFF" filter="url(#f12gfiwuygsv3e)" points="16,220.9531,90,220.9531,97,243.25,552,243.25,552,847.9531,16,847.9531,16,220.9531" style="stroke:#000000;stroke-width:1.5;"/><line style="stroke:#000000;stroke-width:1.5;" x1="16" x2="97" y1="243.25" y2="243.25"/><text fill="#000000" font-family="sans-serif" font-size="14" font-weight="bold" lengthAdjust="spacing" textLength="68" x="20" y="235.9482">ordering</text><!--MD5=[2766a367a4a8c35b562b373df6255952]
cluster payment--><polygon fill="#FFFFFF" filter="url(#f12gfiwuygsv3e)" points="576,26.9531,650,26.9531,657,49.25,1192,49.25,1192,585.9531,576,585.9531,576,26.9531" style="stroke:#000000;stroke-width:1.5;"/><line style="stroke:#000000;stroke-width:1.5;" x1="576" x2="657" y1="49.25" y2="49.25"/><text fill="#000000" font-family="sans-serif" font-size="14" font-weight="bold" lengthAdjust="spacing" textLength="68" x="580" y="41.9482">payment</text><!--MD5=[9496b5050aed6bf925720072b82e4c4a]
cluster kitchen--><polygon fill="#FFFFFF" filter="url(#f12gfiwuygsv3e)" points="1216,70.4531,1280,70.4531,1287,92.75,1546,92.75,1546,146.4531,1216,146.4531,1216,70.4531" style="stroke:#000000;stroke-width:1.5;"/><line style="stroke:#000000;stroke-width:1.5;" x1="1216" x2="1287" y1="92.75" y2="92.75"/><text fill="#000000" font-family="sans-serif" font-size="14" font-weight="bold" lengthAdjust="spacing" textLength="58" x="1220" y="85.4482">kitchen</text><!--MD5=[ed77a744da6e37a7124812c9a9bebb4a]
cluster supplier--><polygon fill="#FFFFFF" filter="url(#f12gfiwuygsv3e)" points="1570,70.4531,1640,70.4531,1647,92.75,1714,92.75,1714,146.4531,1570,146.4531,1570,70.4531" style="stroke:#000000;stroke-width:1.5;"/><line style="stroke:#000000;stroke-width:1.5;" x1="1570" x2="1647" y1="92.75" y2="92.75"/><text fill="#000000" font-family="sans-serif" font-size="14" font-weight="bold" lengthAdjust="spacing" textLength="64" x="1574" y="85.4482">supplier</text><!--MD5=[5cd944cb279293b89f9d12f5940b5cb2]
cluster management--><polygon fill="#FFFFFF" filter="url(#f12gfiwuygsv3e)" points="1738,70.4531,1846,70.4531,1853,92.75,1918,92.75,1918,146.4531,1738,146.4531,1738,70.4531" style="stroke:#000000;stroke-width:1.5;"/><line style="stroke:#000000;stroke-width:1.5;" x1="1738" x2="1853" y1="92.75" y2="92.75"/><text fill="#000000" font-family="sans-serif" font-size="14" font-weight="bold" lengthAdjust="spacing" textLength="102" x="1742" y="85.4482">management</text><!--MD5=[ce1c91e560aedd45062413d3900c0121]
class shared_kernel.Amount--><rect codeLine="6" fill="#FEFECE" filter="url(#f12gfiwuygsv3e)" height="60.8047" id="shared_kernel.Amount" style="stroke:#A80036;stroke-width:1.5;" width="138" x="395" y="931.4531"/><ellipse cx="436.1" cy="947.4531" fill="#ADD1B2" rx="11" ry="11" style="stroke:#A80036;stroke-width:1.0;"/><path d="M439.0688,953.0938 Q438.4906,953.3906 437.85,953.5313 Q437.2094,953.6875 436.5063,953.6875 Q434.0063,953.6875 432.6781,952.0469 Q431.3656,950.3906 431.3656,947.2656 Q431.3656,944.1406 432.6781,942.4844 Q434.0063,940.8281 436.5063,940.8281 Q437.2094,940.8281 437.85,940.9844 Q438.5063,941.1406 439.0688,941.4375 L439.0688,944.1563 Q438.4438,943.5781 437.85,943.3125 Q437.2563,943.0313 436.6313,943.0313 Q435.2875,943.0313 434.6,944.1094 Q433.9125,945.1719 433.9125,947.2656 Q433.9125,949.3594 434.6,950.4375 Q435.2875,951.5 436.6313,951.5 Q437.2563,951.5 437.85,951.2344 Q438.4438,950.9531 439.0688,950.375 L439.0688,953.0938 Z " fill="#000000"/><text fill="#000000" font-family="sans-serif" font-size="12" lengthAdjust="spacing" textLength="48" x="455.9" y="951.6074">Amount</text><line style="stroke:#A80036;stroke-width:1.5;" x1="396" x2="532" y1="963.4531" y2="963.4531"/><ellipse cx="406" cy="974.4531" rx="3" ry="3" style="stroke:#038048;stroke-width:1.0;fill:none;"/><text fill="#000000" font-family="sans-serif" font-size="11" lengthAdjust="spacing" textLength="112" x="415" y="977.6636">quanity: BigDecimal</text><line style="stroke:#A80036;stroke-width:1.5;" x1="396" x2="532" y1="984.2578" y2="984.2578"/><!--MD5=[6e1575485b2088a38d58a42caca1a3c8]
class shared_kernel.MeasurementUnit--><rect codeLine="11" fill="#FEFECE" filter="url(#f12gfiwuygsv3e)" height="112.0234" id="shared_kernel.MeasurementUnit" style="stroke:#A80036;stroke-width:1.5;" width="143" x="392.5" y="1084.9531"/><ellipse cx="407.5" cy="1100.9531" fill="#EB937F" rx="11" ry="11" style="stroke:#A80036;stroke-width:1.0;"/><path d="M411.6094,1106.9531 L403.8906,1106.9531 L403.8906,1094.5625 L411.6094,1094.5625 L411.6094,1096.7188 L406.3438,1096.7188 L406.3438,1099.3906 L411.1094,1099.3906 L411.1094,1101.5469 L406.3438,1101.5469 L406.3438,1104.7969 L411.6094,1104.7969 L411.6094,1106.9531 Z " fill="#000000"/><text fill="#000000" font-family="sans-serif" font-size="12" lengthAdjust="spacing" textLength="111" x="421.5" y="1105.1074">MeasurementUnit</text><line style="stroke:#A80036;stroke-width:1.5;" x1="393.5" x2="534.5" y1="1116.9531" y2="1116.9531"/><text fill="#000000" font-family="sans-serif" font-size="11" lengthAdjust="spacing" textLength="40" x="398.5" y="1131.1636">PIECES</text><text fill="#000000" font-family="sans-serif" font-size="11" lengthAdjust="spacing" textLength="65" x="398.5" y="1143.9683">KILOGRAMS</text><text fill="#000000" font-family="sans-serif" font-size="11" lengthAdjust="spacing" textLength="48" x="398.5" y="1156.7729">POUNDS</text><text fill="#000000" font-family="sans-serif" font-size="11" lengthAdjust="spacing" textLength="38" x="398.5" y="1169.5776">LITRES</text><text fill="#000000" font-family="sans-serif" font-size="11" lengthAdjust="spacing" textLength="77" x="398.5" y="1182.3823">FLUID_OUNCE</text><line style="stroke:#A80036;stroke-width:1.5;" x1="393.5" x2="534.5" y1="1188.9766" y2="1188.9766"/><!--MD5=[777c9b4db9c3ab299ae589e5f9e3421b]
class shared_kernel.CurrencyValue--><rect codeLine="19" fill="#FEFECE" filter="url(#f12gfiwuygsv3e)" height="60.8047" id="shared_kernel.CurrencyValue" style="stroke:#A80036;stroke-width:1.5;" width="138" x="568" y="931.4531"/><ellipse cx="590.2" cy="947.4531" fill="#ADD1B2" rx="11" ry="11" style="stroke:#A80036;stroke-width:1.0;"/><path d="M593.1688,953.0938 Q592.5906,953.3906 591.95,953.5313 Q591.3094,953.6875 590.6063,953.6875 Q588.1063,953.6875 586.7781,952.0469 Q585.4656,950.3906 585.4656,947.2656 Q585.4656,944.1406 586.7781,942.4844 Q588.1063,940.8281 590.6063,940.8281 Q591.3094,940.8281 591.95,940.9844 Q592.6063,941.1406 593.1688,941.4375 L593.1688,944.1563 Q592.5438,943.5781 591.95,943.3125 Q591.3563,943.0313 590.7313,943.0313 Q589.3875,943.0313 588.7,944.1094 Q588.0125,945.1719 588.0125,947.2656 Q588.0125,949.3594 588.7,950.4375 Q589.3875,951.5 590.7313,951.5 Q591.3563,951.5 591.95,951.2344 Q592.5438,950.9531 593.1688,950.375 L593.1688,953.0938 Z " fill="#000000"/><text fill="#000000" font-family="sans-serif" font-size="12" lengthAdjust="spacing" textLength="90" x="605.8" y="951.6074">CurrencyValue</text><line style="stroke:#A80036;stroke-width:1.5;" x1="569" x2="705" y1="963.4531" y2="963.4531"/><ellipse cx="579" cy="974.4531" rx="3" ry="3" style="stroke:#038048;stroke-width:1.0;fill:none;"/><text fill="#000000" font-family="sans-serif" font-size="11" lengthAdjust="spacing" textLength="112" x="588" y="977.6636">quanity: BigDecimal</text><line style="stroke:#A80036;stroke-width:1.5;" x1="569" x2="705" y1="984.2578" y2="984.2578"/><!--MD5=[2cd69bb6ce76f767714cb99f7d56bbbc]
class shared_kernel.Currency--><rect codeLine="24" fill="#FEFECE" filter="url(#f12gfiwuygsv3e)" height="86.4141" id="shared_kernel.Currency" style="stroke:#A80036;stroke-width:1.5;" width="98" x="588" y="1097.9531"/><ellipse cx="607.95" cy="1113.9531" fill="#EB937F" rx="11" ry="11" style="stroke:#A80036;stroke-width:1.0;"/><path d="M612.0594,1119.9531 L604.3406,1119.9531 L604.3406,1107.5625 L612.0594,1107.5625 L612.0594,1109.7188 L606.7938,1109.7188 L606.7938,1112.3906 L611.5594,1112.3906 L611.5594,1114.5469 L606.7938,1114.5469 L606.7938,1117.7969 L612.0594,1117.7969 L612.0594,1119.9531 Z " fill="#000000"/><text fill="#000000" font-family="sans-serif" font-size="12" lengthAdjust="spacing" textLength="55" x="623.05" y="1118.1074">Currency</text><line style="stroke:#A80036;stroke-width:1.5;" x1="589" x2="685" y1="1129.9531" y2="1129.9531"/><text fill="#000000" font-family="sans-serif" font-size="11" lengthAdjust="spacing" textLength="65" x="594" y="1144.1636">US_DOLLAR</text><text fill="#000000" font-family="sans-serif" font-size="11" lengthAdjust="spacing" textLength="86" x="594" y="1156.9683">MEXICAN_PESO</text><text fill="#000000" font-family="sans-serif" font-size="11" lengthAdjust="spacing" textLength="46" x="594" y="1169.7729">BITCOIN</text><line style="stroke:#A80036;stroke-width:1.5;" x1="589" x2="685" y1="1176.3672" y2="1176.3672"/><!--MD5=[5d85cc31602c3ea5b056394b7d629b75]
class shared_kernel.OrderStatusUpdated--><rect codeLine="30" fill="#FEFECE" filter="url(#f12gfiwuygsv3e)" height="79.5469" id="shared_kernel.OrderStatusUpdated" style="stroke:#A80036;stroke-width:1.5;" width="178" x="182" y="921.9531"/><ellipse cx="204.2" cy="940.9219" fill="#ADD1B2" rx="11" ry="11" style="stroke:#A80036;stroke-width:1.0;"/><path d="M207.1688,946.5625 Q206.5906,946.8594 205.95,947 Q205.3094,947.1563 204.6063,947.1563 Q202.1063,947.1563 200.7781,945.5156 Q199.4656,943.8594 199.4656,940.7344 Q199.4656,937.6094 200.7781,935.9531 Q202.1063,934.2969 204.6063,934.2969 Q205.3094,934.2969 205.95,934.4531 Q206.6063,934.6094 207.1688,934.9063 L207.1688,937.625 Q206.5438,937.0469 205.95,936.7813 Q205.3563,936.5 204.7313,936.5 Q203.3875,936.5 202.7,937.5781 Q202.0125,938.6406 202.0125,940.7344 Q202.0125,942.8281 202.7,943.9063 Q203.3875,944.9688 204.7313,944.9688 Q205.3563,944.9688 205.95,944.7031 Q206.5438,944.4219 207.1688,943.8438 L207.1688,946.5625 Z " fill="#000000"/><text fill="#000000" font-family="sans-serif" font-size="12" font-style="italic" lengthAdjust="spacing" textLength="49" x="260.3" y="938.0918">«event»</text><text fill="#000000" font-family="sans-serif" font-size="12" lengthAdjust="spacing" textLength="130" x="219.8" y="952.0605">OrderStatusUpdated</text><line style="stroke:#A80036;stroke-width:1.5;" x1="183" x2="359" y1="959.8906" y2="959.8906"/><ellipse cx="193" cy="970.8906" rx="3" ry="3" style="stroke:#038048;stroke-width:1.0;fill:none;"/><text fill="#000000" font-family="sans-serif" font-size="11" lengthAdjust="spacing" textLength="89" x="202" y="974.1011">orderId: integer</text><ellipse cx="193" cy="983.6953" rx="3" ry="3" style="stroke:#038048;stroke-width:1.0;fill:none;"/><text fill="#000000" font-family="sans-serif" font-size="11" lengthAdjust="spacing" textLength="152" x="202" y="986.9058">dateTime: ZonedDateTime</text><line style="stroke:#A80036;stroke-width:1.5;" x1="183" x2="359" y1="993.5" y2="993.5"/><!--MD5=[4e41378c326aded17df1c0e61b531855]
class shared_kernel.OrderStatus--><rect codeLine="36" fill="#FEFECE" filter="url(#f12gfiwuygsv3e)" height="86.4141" id="shared_kernel.OrderStatus" style="stroke:#A80036;stroke-width:1.5;" width="108" x="191" y="1097.9531"/><ellipse cx="206" cy="1113.9531" fill="#EB937F" rx="11" ry="11" style="stroke:#A80036;stroke-width:1.0;"/><path d="M210.1094,1119.9531 L202.3906,1119.9531 L202.3906,1107.5625 L210.1094,1107.5625 L210.1094,1109.7188 L204.8438,1109.7188 L204.8438,1112.3906 L209.6094,1112.3906 L209.6094,1114.5469 L204.8438,1114.5469 L204.8438,1117.7969 L210.1094,1117.7969 L210.1094,1119.9531 Z " fill="#000000"/><text fill="#000000" font-family="sans-serif" font-size="12" lengthAdjust="spacing" textLength="76" x="220" y="1118.1074">OrderStatus</text><line style="stroke:#A80036;stroke-width:1.5;" x1="192" x2="298" y1="1129.9531" y2="1129.9531"/><text fill="#000000" font-family="sans-serif" font-size="11" lengthAdjust="spacing" textLength="59" x="197" y="1144.1636">RECEIVING</text><text fill="#000000" font-family="sans-serif" font-size="11" lengthAdjust="spacing" textLength="65" x="197" y="1156.9683">SUBMITTED</text><text fill="#000000" font-family="sans-serif" font-size="11" lengthAdjust="spacing" textLength="65" x="197" y="1169.7729">CANCELLED</text><line style="stroke:#A80036;stroke-width:1.5;" x1="192" x2="298" y1="1176.3672" y2="1176.3672"/><!--MD5=[e7b308c4dcad3621a799de47fc9a2e08]
class shared_kernel.BillStatusUpdated--><rect codeLine="42" fill="#FEFECE" filter="url(#f12gfiwuygsv3e)" height="92.3516" id="shared_kernel.BillStatusUpdated" style="stroke:#A80036;stroke-width:1.5;" width="178" x="741" y="915.9531"/><ellipse cx="771.3" cy="934.9219" fill="#ADD1B2" rx="11" ry="11" style="stroke:#A80036;stroke-width:1.0;"/><path d="M774.2688,940.5625 Q773.6906,940.8594 773.05,941 Q772.4094,941.1563 771.7063,941.1563 Q769.2063,941.1563 767.8781,939.5156 Q766.5656,937.8594 766.5656,934.7344 Q766.5656,931.6094 767.8781,929.9531 Q769.2063,928.2969 771.7063,928.2969 Q772.4094,928.2969 773.05,928.4531 Q773.7063,928.6094 774.2688,928.9063 L774.2688,931.625 Q773.6438,931.0469 773.05,930.7813 Q772.4563,930.5 771.8313,930.5 Q770.4875,930.5 769.8,931.5781 Q769.1125,932.6406 769.1125,934.7344 Q769.1125,936.8281 769.8,937.9063 Q770.4875,938.9688 771.8313,938.9688 Q772.4563,938.9688 773.05,938.7031 Q773.6438,938.4219 774.2688,937.8438 L774.2688,940.5625 Z " fill="#000000"/><text fill="#000000" font-family="sans-serif" font-size="12" font-style="italic" lengthAdjust="spacing" textLength="49" x="820.2" y="932.0918">«event»</text><text fill="#000000" font-family="sans-serif" font-size="12" lengthAdjust="spacing" textLength="112" x="788.7" y="946.0605">BillStatusUpdated</text><line style="stroke:#A80036;stroke-width:1.5;" x1="742" x2="918" y1="953.8906" y2="953.8906"/><ellipse cx="752" cy="964.8906" rx="3" ry="3" style="stroke:#038048;stroke-width:1.0;fill:none;"/><text fill="#000000" font-family="sans-serif" font-size="11" lengthAdjust="spacing" textLength="74" x="761" y="968.1011">billId: integer</text><ellipse cx="752" cy="977.6953" rx="3" ry="3" style="stroke:#038048;stroke-width:1.0;fill:none;"/><text fill="#000000" font-family="sans-serif" font-size="11" lengthAdjust="spacing" textLength="89" x="761" y="980.9058">orderId: integer</text><ellipse cx="752" cy="990.5" rx="3" ry="3" style="stroke:#038048;stroke-width:1.0;fill:none;"/><text fill="#000000" font-family="sans-serif" font-size="11" lengthAdjust="spacing" textLength="152" x="761" y="993.7104">dateTime: ZonedDateTime</text><line style="stroke:#A80036;stroke-width:1.5;" x1="742" x2="918" y1="1000.3047" y2="1000.3047"/><!--MD5=[82d6293d481c3f2170aae4721e5284a7]
class shared_kernel.BillStatus--><rect codeLine="49" fill="#FEFECE" filter="url(#f12gfiwuygsv3e)" height="86.4141" id="shared_kernel.BillStatus" style="stroke:#A80036;stroke-width:1.5;" width="90" x="807" y="1097.9531"/><ellipse cx="822" cy="1113.9531" fill="#EB937F" rx="11" ry="11" style="stroke:#A80036;stroke-width:1.0;"/><path d="M826.1094,1119.9531 L818.3906,1119.9531 L818.3906,1107.5625 L826.1094,1107.5625 L826.1094,1109.7188 L820.8438,1109.7188 L820.8438,1112.3906 L825.6094,1112.3906 L825.6094,1114.5469 L820.8438,1114.5469 L820.8438,1117.7969 L826.1094,1117.7969 L826.1094,1119.9531 Z " fill="#000000"/><text fill="#000000" font-family="sans-serif" font-size="12" lengthAdjust="spacing" textLength="58" x="836" y="1118.1074">BillStatus</text><line style="stroke:#A80036;stroke-width:1.5;" x1="808" x2="896" y1="1129.9531" y2="1129.9531"/><text fill="#000000" font-family="sans-serif" font-size="11" lengthAdjust="spacing" textLength="59" x="813" y="1144.1636">RECEIVING</text><text fill="#000000" font-family="sans-serif" font-size="11" lengthAdjust="spacing" textLength="25" x="813" y="1156.9683">PAID</text><text fill="#000000" font-family="sans-serif" font-size="11" lengthAdjust="spacing" textLength="65" x="813" y="1169.7729">CANCELLED</text><line style="stroke:#A80036;stroke-width:1.5;" x1="808" x2="896" y1="1176.3672" y2="1176.3672"/><!--MD5=[cb72925a0c80cbdc5fecacca68a0124e]
class ordering.Menu--><rect codeLine="59" fill="#FEFECE" filter="url(#f12gfiwuygsv3e)" height="48" id="ordering.Menu" style="stroke:#A80036;stroke-width:1.5;" width="66" x="227" y="496.4531"/><ellipse cx="242" cy="512.4531" fill="#ADD1B2" rx="11" ry="11" style="stroke:#A80036;stroke-width:1.0;"/><path d="M244.9688,518.0938 Q244.3906,518.3906 243.75,518.5313 Q243.1094,518.6875 242.4063,518.6875 Q239.9063,518.6875 238.5781,517.0469 Q237.2656,515.3906 237.2656,512.2656 Q237.2656,509.1406 238.5781,507.4844 Q239.9063,505.8281 242.4063,505.8281 Q243.1094,505.8281 243.75,505.9844 Q244.4063,506.1406 244.9688,506.4375 L244.9688,509.1563 Q244.3438,508.5781 243.75,508.3125 Q243.1563,508.0313 242.5313,508.0313 Q241.1875,508.0313 240.5,509.1094 Q239.8125,510.1719 239.8125,512.2656 Q239.8125,514.3594 240.5,515.4375 Q241.1875,516.5 242.5313,516.5 Q243.1563,516.5 243.75,516.2344 Q244.3438,515.9531 244.9688,515.375 L244.9688,518.0938 Z " fill="#000000"/><text fill="#000000" font-family="sans-serif" font-size="12" lengthAdjust="spacing" textLength="34" x="256" y="516.6074">Menu</text><line style="stroke:#A80036;stroke-width:1.5;" x1="228" x2="292" y1="528.4531" y2="528.4531"/><line style="stroke:#A80036;stroke-width:1.5;" x1="228" x2="292" y1="536.4531" y2="536.4531"/><!--MD5=[cec363cb0be2ffa855d107ff2828c1d0]
class ordering.MenuItem--><rect fill="#FEFECE" filter="url(#f12gfiwuygsv3e)" height="48" id="ordering.MenuItem" style="stroke:#A80036;stroke-width:1.5;" width="93" x="294.5" y="632.9531"/><ellipse cx="309.5" cy="648.9531" fill="#ADD1B2" rx="11" ry="11" style="stroke:#A80036;stroke-width:1.0;"/><path d="M312.4688,654.5938 Q311.8906,654.8906 311.25,655.0313 Q310.6094,655.1875 309.9063,655.1875 Q307.4063,655.1875 306.0781,653.5469 Q304.7656,651.8906 304.7656,648.7656 Q304.7656,645.6406 306.0781,643.9844 Q307.4063,642.3281 309.9063,642.3281 Q310.6094,642.3281 311.25,642.4844 Q311.9063,642.6406 312.4688,642.9375 L312.4688,645.6563 Q311.8438,645.0781 311.25,644.8125 Q310.6563,644.5313 310.0313,644.5313 Q308.6875,644.5313 308,645.6094 Q307.3125,646.6719 307.3125,648.7656 Q307.3125,650.8594 308,651.9375 Q308.6875,653 310.0313,653 Q310.6563,653 311.25,652.7344 Q311.8438,652.4531 312.4688,651.875 L312.4688,654.5938 Z " fill="#000000"/><text fill="#000000" font-family="sans-serif" font-size="12" lengthAdjust="spacing" textLength="61" x="323.5" y="653.1074">MenuItem</text><line style="stroke:#A80036;stroke-width:1.5;" x1="295.5" x2="386.5" y1="664.9531" y2="664.9531"/><line style="stroke:#A80036;stroke-width:1.5;" x1="295.5" x2="386.5" y1="672.9531" y2="672.9531"/><!--MD5=[edf33383e1839779ea42c598dd49c6d3]
class ordering.Order--><rect codeLine="62" fill="#FEFECE" filter="url(#f12gfiwuygsv3e)" height="137.6328" id="ordering.Order" style="stroke:#A80036;stroke-width:1.5;" width="504" x="32" y="255.9531"/><ellipse cx="262.25" cy="271.9531" fill="#ADD1B2" rx="11" ry="11" style="stroke:#A80036;stroke-width:1.0;"/><path d="M265.2188,277.5938 Q264.6406,277.8906 264,278.0313 Q263.3594,278.1875 262.6563,278.1875 Q260.1563,278.1875 258.8281,276.5469 Q257.5156,274.8906 257.5156,271.7656 Q257.5156,268.6406 258.8281,266.9844 Q260.1563,265.3281 262.6563,265.3281 Q263.3594,265.3281 264,265.4844 Q264.6563,265.6406 265.2188,265.9375 L265.2188,268.6563 Q264.5938,268.0781 264,267.8125 Q263.4063,267.5313 262.7813,267.5313 Q261.4375,267.5313 260.75,268.6094 Q260.0625,269.6719 260.0625,271.7656 Q260.0625,273.8594 260.75,274.9375 Q261.4375,276 262.7813,276 Q263.4063,276 264,275.7344 Q264.5938,275.4531 265.2188,274.875 L265.2188,277.5938 Z " fill="#000000"/><text fill="#000000" font-family="sans-serif" font-size="12" lengthAdjust="spacing" textLength="35" x="282.75" y="276.1074">Order</text><line style="stroke:#A80036;stroke-width:1.5;" x1="33" x2="535" y1="287.9531" y2="287.9531"/><ellipse cx="43" cy="298.9531" rx="3" ry="3" style="stroke:#038048;stroke-width:1.0;fill:none;"/><text fill="#000000" font-family="sans-serif" font-size="11" lengthAdjust="spacing" textLength="58" x="52" y="302.1636">id: integer</text><ellipse cx="43" cy="311.7578" rx="3" ry="3" style="stroke:#038048;stroke-width:1.0;fill:none;"/><text fill="#000000" font-family="sans-serif" font-size="11" lengthAdjust="spacing" textLength="129" x="52" y="314.9683">customerName: String</text><line style="stroke:#A80036;stroke-width:1.5;" x1="33" x2="535" y1="321.5625" y2="321.5625"/><text fill="#000000" font-family="sans-serif" font-size="11" lengthAdjust="spacing" textLength="492" x="38" y="335.7729">void addOrderItem(menuItem: MenuItem, quantity: integer, specialInstructions: String)</text><text fill="#000000" font-family="sans-serif" font-size="11" lengthAdjust="spacing" textLength="254" x="38" y="348.5776">void removeOrderItem(OrderItem orderItem)</text><text fill="#000000" font-family="sans-serif" font-size="11" lengthAdjust="spacing" textLength="141" x="38" y="361.3823">void submitForPayment()</text><text fill="#000000" font-family="sans-serif" font-size="11" lengthAdjust="spacing" textLength="71" x="38" y="374.187">void cancel()</text><text fill="#000000" font-family="sans-serif" font-size="11" lengthAdjust="spacing" textLength="172" x="38" y="386.9917">CurrencyValue calculatePrice()</text><!--MD5=[4d14d265d77881527bc9f67889369cdc]
class ordering.OrderItem--><rect codeLine="74" fill="#FEFECE" filter="url(#f12gfiwuygsv3e)" height="86.4141" id="ordering.OrderItem" style="stroke:#A80036;stroke-width:1.5;" width="175" x="328.5" y="477.4531"/><ellipse cx="380.75" cy="493.4531" fill="#ADD1B2" rx="11" ry="11" style="stroke:#A80036;stroke-width:1.0;"/><path d="M383.7188,499.0938 Q383.1406,499.3906 382.5,499.5313 Q381.8594,499.6875 381.1563,499.6875 Q378.6563,499.6875 377.3281,498.0469 Q376.0156,496.3906 376.0156,493.2656 Q376.0156,490.1406 377.3281,488.4844 Q378.6563,486.8281 381.1563,486.8281 Q381.8594,486.8281 382.5,486.9844 Q383.1563,487.1406 383.7188,487.4375 L383.7188,490.1563 Q383.0938,489.5781 382.5,489.3125 Q381.9063,489.0313 381.2813,489.0313 Q379.9375,489.0313 379.25,490.1094 Q378.5625,491.1719 378.5625,493.2656 Q378.5625,495.3594 379.25,496.4375 Q379.9375,497.5 381.2813,497.5 Q381.9063,497.5 382.5,497.2344 Q383.0938,496.9531 383.7188,496.375 L383.7188,499.0938 Z " fill="#000000"/><text fill="#000000" font-family="sans-serif" font-size="12" lengthAdjust="spacing" textLength="62" x="401.25" y="497.6074">OrderItem</text><line style="stroke:#A80036;stroke-width:1.5;" x1="329.5" x2="502.5" y1="509.4531" y2="509.4531"/><ellipse cx="339.5" cy="520.4531" rx="3" ry="3" style="stroke:#038048;stroke-width:1.0;fill:none;"/><text fill="#000000" font-family="sans-serif" font-size="11" lengthAdjust="spacing" textLength="58" x="348.5" y="523.6636">id: integer</text><ellipse cx="339.5" cy="533.2578" rx="3" ry="3" style="stroke:#038048;stroke-width:1.0;fill:none;"/><text fill="#000000" font-family="sans-serif" font-size="11" lengthAdjust="spacing" textLength="149" x="348.5" y="536.4683">specialInstructions: String</text><ellipse cx="339.5" cy="546.0625" rx="3" ry="3" style="stroke:#038048;stroke-width:1.0;fill:none;"/><text fill="#000000" font-family="sans-serif" font-size="11" lengthAdjust="spacing" textLength="93" x="348.5" y="549.2729">quantity: integer</text><line style="stroke:#A80036;stroke-width:1.5;" x1="329.5" x2="502.5" y1="555.8672" y2="555.8672"/><!--MD5=[b2b0646daa3754f846b6df9fdbdbf161]
class ordering.FoodBeverage--><rect codeLine="85" fill="#FEFECE" filter="url(#f12gfiwuygsv3e)" height="73.6094" id="ordering.FoodBeverage" style="stroke:#A80036;stroke-width:1.5;" width="131" x="337.5" y="757.9531"/><ellipse cx="356.55" cy="773.9531" fill="#ADD1B2" rx="11" ry="11" style="stroke:#A80036;stroke-width:1.0;"/><path d="M359.5188,779.5938 Q358.9406,779.8906 358.3,780.0313 Q357.6594,780.1875 356.9563,780.1875 Q354.4563,780.1875 353.1281,778.5469 Q351.8156,776.8906 351.8156,773.7656 Q351.8156,770.6406 353.1281,768.9844 Q354.4563,767.3281 356.9563,767.3281 Q357.6594,767.3281 358.3,767.4844 Q358.9563,767.6406 359.5188,767.9375 L359.5188,770.6563 Q358.8938,770.0781 358.3,769.8125 Q357.7063,769.5313 357.0813,769.5313 Q355.7375,769.5313 355.05,770.6094 Q354.3625,771.6719 354.3625,773.7656 Q354.3625,775.8594 355.05,776.9375 Q355.7375,778 357.0813,778 Q357.7063,778 358.3,777.7344 Q358.8938,777.4531 359.5188,776.875 L359.5188,779.5938 Z " fill="#000000"/><text fill="#000000" font-family="sans-serif" font-size="12" lengthAdjust="spacing" textLength="90" x="371.45" y="778.1074">FoodBeverage</text><line style="stroke:#A80036;stroke-width:1.5;" x1="338.5" x2="467.5" y1="789.9531" y2="789.9531"/><ellipse cx="348.5" cy="800.9531" rx="3" ry="3" style="stroke:#038048;stroke-width:1.0;fill:none;"/><text fill="#000000" font-family="sans-serif" font-size="11" lengthAdjust="spacing" textLength="74" x="357.5" y="804.1636">name: String</text><ellipse cx="348.5" cy="813.7578" rx="3" ry="3" style="stroke:#038048;stroke-width:1.0;fill:none;"/><text fill="#000000" font-family="sans-serif" font-size="11" lengthAdjust="spacing" textLength="105" x="357.5" y="816.9683">description: String</text><line style="stroke:#A80036;stroke-width:1.5;" x1="338.5" x2="467.5" y1="823.5625" y2="823.5625"/><!--MD5=[92749f12d8d6e1c9f5794bd474a40071]
class ordering.PricingOffer--><rect codeLine="90" fill="#FEFECE" filter="url(#f12gfiwuygsv3e)" height="60.8047" id="ordering.PricingOffer" style="stroke:#A80036;stroke-width:1.5;" width="104" x="198" y="764.4531"/><ellipse cx="213" cy="780.4531" fill="#ADD1B2" rx="11" ry="11" style="stroke:#A80036;stroke-width:1.0;"/><path d="M215.9688,786.0938 Q215.3906,786.3906 214.75,786.5313 Q214.1094,786.6875 213.4063,786.6875 Q210.9063,786.6875 209.5781,785.0469 Q208.2656,783.3906 208.2656,780.2656 Q208.2656,777.1406 209.5781,775.4844 Q210.9063,773.8281 213.4063,773.8281 Q214.1094,773.8281 214.75,773.9844 Q215.4063,774.1406 215.9688,774.4375 L215.9688,777.1563 Q215.3438,776.5781 214.75,776.3125 Q214.1563,776.0313 213.5313,776.0313 Q212.1875,776.0313 211.5,777.1094 Q210.8125,778.1719 210.8125,780.2656 Q210.8125,782.3594 211.5,783.4375 Q212.1875,784.5 213.5313,784.5 Q214.1563,784.5 214.75,784.2344 Q215.3438,783.9531 215.9688,783.375 L215.9688,786.0938 Z " fill="#000000"/><text fill="#000000" font-family="sans-serif" font-size="12" lengthAdjust="spacing" textLength="72" x="227" y="784.6074">PricingOffer</text><line style="stroke:#A80036;stroke-width:1.5;" x1="199" x2="301" y1="796.4531" y2="796.4531"/><ellipse cx="209" cy="807.4531" rx="3" ry="3" style="stroke:#038048;stroke-width:1.0;fill:none;"/><text fill="#000000" font-family="sans-serif" font-size="11" lengthAdjust="spacing" textLength="74" x="218" y="810.6636">name: String</text><line style="stroke:#A80036;stroke-width:1.5;" x1="199" x2="301" y1="817.2578" y2="817.2578"/><!--MD5=[fd7fe0ec85bd5854151d1d01b9cc304c]
class payment.Bill--><rect codeLine="100" fill="#FEFECE" filter="url(#f12gfiwuygsv3e)" height="112.0234" id="payment.Bill" style="stroke:#A80036;stroke-width:1.5;" width="584" x="592" y="61.9531"/><ellipse cx="871.25" cy="77.9531" fill="#ADD1B2" rx="11" ry="11" style="stroke:#A80036;stroke-width:1.0;"/><path d="M874.2188,83.5938 Q873.6406,83.8906 873,84.0313 Q872.3594,84.1875 871.6563,84.1875 Q869.1563,84.1875 867.8281,82.5469 Q866.5156,80.8906 866.5156,77.7656 Q866.5156,74.6406 867.8281,72.9844 Q869.1563,71.3281 871.6563,71.3281 Q872.3594,71.3281 873,71.4844 Q873.6563,71.6406 874.2188,71.9375 L874.2188,74.6563 Q873.5938,74.0781 873,73.8125 Q872.4063,73.5313 871.7813,73.5313 Q870.4375,73.5313 869.75,74.6094 Q869.0625,75.6719 869.0625,77.7656 Q869.0625,79.8594 869.75,80.9375 Q870.4375,82 871.7813,82 Q872.4063,82 873,81.7344 Q873.5938,81.4531 874.2188,80.875 L874.2188,83.5938 Z " fill="#000000"/><text fill="#000000" font-family="sans-serif" font-size="12" lengthAdjust="spacing" textLength="17" x="891.75" y="82.1074">Bill</text><line style="stroke:#A80036;stroke-width:1.5;" x1="593" x2="1175" y1="93.9531" y2="93.9531"/><ellipse cx="603" cy="104.9531" rx="3" ry="3" style="stroke:#038048;stroke-width:1.0;fill:none;"/><text fill="#000000" font-family="sans-serif" font-size="11" lengthAdjust="spacing" textLength="58" x="612" y="108.1636">id: integer</text><line style="stroke:#A80036;stroke-width:1.5;" x1="593" x2="1175" y1="114.7578" y2="114.7578"/><text fill="#000000" font-family="sans-serif" font-size="11" lengthAdjust="spacing" textLength="572" x="598" y="128.9683">void addPayment(currencyValue: shared_kernel.CurrencyValue, paymentMethod: PAYMENT_METHOD)</text><text fill="#000000" font-family="sans-serif" font-size="11" lengthAdjust="spacing" textLength="233" x="598" y="141.7729">void removePayment(payment: Payment)</text><text fill="#000000" font-family="sans-serif" font-size="11" lengthAdjust="spacing" textLength="137" x="598" y="154.5776">void processPayments()</text><text fill="#000000" font-family="sans-serif" font-size="11" lengthAdjust="spacing" textLength="71" x="598" y="167.3823">void cancel()</text><!--MD5=[4ac173e63affe96cf21684249df94d62]
class payment.Payment--><rect codeLine="112" fill="#FEFECE" filter="url(#f12gfiwuygsv3e)" height="48" id="payment.Payment" style="stroke:#A80036;stroke-width:1.5;" width="86" x="714" y="300.9531"/><ellipse cx="729" cy="316.9531" fill="#ADD1B2" rx="11" ry="11" style="stroke:#A80036;stroke-width:1.0;"/><path d="M731.9688,322.5938 Q731.3906,322.8906 730.75,323.0313 Q730.1094,323.1875 729.4063,323.1875 Q726.9063,323.1875 725.5781,321.5469 Q724.2656,319.8906 724.2656,316.7656 Q724.2656,313.6406 725.5781,311.9844 Q726.9063,310.3281 729.4063,310.3281 Q730.1094,310.3281 730.75,310.4844 Q731.4063,310.6406 731.9688,310.9375 L731.9688,313.6563 Q731.3438,313.0781 730.75,312.8125 Q730.1563,312.5313 729.5313,312.5313 Q728.1875,312.5313 727.5,313.6094 Q726.8125,314.6719 726.8125,316.7656 Q726.8125,318.8594 727.5,319.9375 Q728.1875,321 729.5313,321 Q730.1563,321 730.75,320.7344 Q731.3438,320.4531 731.9688,319.875 L731.9688,322.5938 Z " fill="#000000"/><text fill="#000000" font-family="sans-serif" font-size="12" lengthAdjust="spacing" textLength="54" x="743" y="321.1074">Payment</text><line style="stroke:#A80036;stroke-width:1.5;" x1="715" x2="799" y1="332.9531" y2="332.9531"/><line style="stroke:#A80036;stroke-width:1.5;" x1="715" x2="799" y1="340.9531" y2="340.9531"/><!--MD5=[e1c1ddc95acd73d7c51241f1b7e08981]
class payment.PAYMENT_METHOD--><rect codeLine="117" fill="#FEFECE" filter="url(#f12gfiwuygsv3e)" height="99.2188" id="payment.PAYMENT_METHOD" style="stroke:#A80036;stroke-width:1.5;" width="147" x="683.5" y="470.9531"/><ellipse cx="698.5" cy="486.9531" fill="#EB937F" rx="11" ry="11" style="stroke:#A80036;stroke-width:1.0;"/><path d="M702.6094,492.9531 L694.8906,492.9531 L694.8906,480.5625 L702.6094,480.5625 L702.6094,482.7188 L697.3438,482.7188 L697.3438,485.3906 L702.1094,485.3906 L702.1094,487.5469 L697.3438,487.5469 L697.3438,490.7969 L702.6094,490.7969 L702.6094,492.9531 Z " fill="#000000"/><text fill="#000000" font-family="sans-serif" font-size="12" lengthAdjust="spacing" textLength="115" x="712.5" y="491.1074">PAYMENT_METHOD</text><line style="stroke:#A80036;stroke-width:1.5;" x1="684.5" x2="829.5" y1="502.9531" y2="502.9531"/><text fill="#000000" font-family="sans-serif" font-size="11" lengthAdjust="spacing" textLength="31" x="689.5" y="517.1636">CASH</text><text fill="#000000" font-family="sans-serif" font-size="11" lengthAdjust="spacing" textLength="25" x="689.5" y="529.9683">VISA</text><text fill="#000000" font-family="sans-serif" font-size="11" lengthAdjust="spacing" textLength="41" x="689.5" y="542.7729">PAYPAL</text><text fill="#000000" font-family="sans-serif" font-size="11" lengthAdjust="spacing" textLength="84" x="689.5" y="555.5776">STORE_CREDIT</text><line style="stroke:#A80036;stroke-width:1.5;" x1="684.5" x2="829.5" y1="562.1719" y2="562.1719"/><path d="M1232,105.4531 L1232,130.5859 L1530,130.5859 L1530,115.4531 L1520,105.4531 L1232,105.4531 " fill="#FBFB77" filter="url(#f12gfiwuygsv3e)" style="stroke:#A80036;stroke-width:1.0;"/><path d="M1520,105.4531 L1520,115.4531 L1530,115.4531 L1520,105.4531 " fill="#FBFB77" style="stroke:#A80036;stroke-width:1.0;"/><text fill="#000000" font-family="sans-serif" font-size="13" lengthAdjust="spacing" textLength="277" x="1238" y="122.52">TODO food and beverage order preparation</text><path d="M1586,105.4531 L1586,130.5859 L1698,130.5859 L1698,115.4531 L1688,105.4531 L1586,105.4531 " fill="#FBFB77" filter="url(#f12gfiwuygsv3e)" style="stroke:#A80036;stroke-width:1.0;"/><path d="M1688,105.4531 L1688,115.4531 L1698,115.4531 L1688,105.4531 " fill="#FBFB77" style="stroke:#A80036;stroke-width:1.0;"/><text fill="#000000" font-family="sans-serif" font-size="13" lengthAdjust="spacing" textLength="91" x="1592" y="122.52">TODO supplier</text><path d="M1753.5,105.4531 L1753.5,130.5859 L1902.5,130.5859 L1902.5,115.4531 L1892.5,105.4531 L1753.5,105.4531 " fill="#FBFB77" filter="url(#f12gfiwuygsv3e)" style="stroke:#A80036;stroke-width:1.0;"/><path d="M1892.5,105.4531 L1892.5,115.4531 L1902.5,115.4531 L1892.5,105.4531 " fill="#FBFB77" style="stroke:#A80036;stroke-width:1.0;"/><text fill="#000000" font-family="sans-serif" font-size="13" lengthAdjust="spacing" textLength="128" x="1759.5" y="122.52">TODO management</text><!--MD5=[6e987d648cdf20fbfa3e9afa12a881a6]
link shared_kernel.Amount to shared_kernel.MeasurementUnit--><path codeLine="9" d="M464,992.5831 C464,1017.6731 464,1054.3331 464,1084.8031 " fill="none" id="shared_kernel.Amount-shared_kernel.MeasurementUnit" style="stroke:#A80036;stroke-width:1.0;stroke-dasharray:7.0,7.0;"/><text fill="#000000" font-family="sans-serif" font-size="13" lengthAdjust="spacing" textLength="30" x="465" y="1051.02">uses</text><text fill="#000000" font-family="sans-serif" font-size="13" lengthAdjust="spacing" textLength="8" x="455.4875" y="1073.7219">1</text><!--MD5=[8c37c082cb61b17a04481dfaa48ade32]
link shared_kernel.CurrencyValue to shared_kernel.Currency--><path codeLine="22" d="M637,992.5831 C637,1021.3131 637,1065.2131 637,1097.6231 " fill="none" id="shared_kernel.CurrencyValue-shared_kernel.Currency" style="stroke:#A80036;stroke-width:1.0;stroke-dasharray:7.0,7.0;"/><text fill="#000000" font-family="sans-serif" font-size="13" lengthAdjust="spacing" textLength="30" x="638" y="1051.02">uses</text><text fill="#000000" font-family="sans-serif" font-size="13" lengthAdjust="spacing" textLength="8" x="628.3875" y="1086.8851">1</text><!--MD5=[bbb1d0d53a2ee8ce57dd4f5537814aa2]
link shared_kernel.OrderStatusUpdated to shared_kernel.OrderStatus--><path codeLine="34" d="M265.23,1002.2331 C261.07,1030.5531 255.46,1068.7131 251.21,1097.6931 " fill="none" id="shared_kernel.OrderStatusUpdated-shared_kernel.OrderStatus" style="stroke:#A80036;stroke-width:1.0;stroke-dasharray:7.0,7.0;"/><text fill="#000000" font-family="sans-serif" font-size="13" lengthAdjust="spacing" textLength="30" x="260" y="1051.02">uses</text><text fill="#000000" font-family="sans-serif" font-size="13" lengthAdjust="spacing" textLength="8" x="243.5484" y="1086.9659">1</text><!--MD5=[400e30c618a330064e0ea70142d5f841]
link shared_kernel.BillStatusUpdated to shared_kernel.BillStatus--><path codeLine="47" d="M835.61,1008.0731 C839.05,1035.7331 843.42,1070.8931 846.78,1097.9531 " fill="none" id="shared_kernel.BillStatusUpdated-shared_kernel.BillStatus" style="stroke:#A80036;stroke-width:1.0;stroke-dasharray:7.0,7.0;"/><text fill="#000000" font-family="sans-serif" font-size="13" lengthAdjust="spacing" textLength="30" x="842" y="1051.02">uses</text><text fill="#000000" font-family="sans-serif" font-size="13" lengthAdjust="spacing" textLength="8" x="837.3106" y="1086.9492">1</text><!--MD5=[61bc6b74e509b396eeee8d49e8cceafb]
reverse link ordering.Menu to ordering.MenuItem--><path codeLine="60" d="M280.64,555.7331 C295.16,579.8431 314.21,611.4631 326.99,632.6831 " fill="none" id="ordering.Menu-backto-ordering.MenuItem" style="stroke:#A80036;stroke-width:1.0;"/><polygon fill="#FFFFFF" points="273.92,544.5731,273.5906,551.7767,280.1133,554.8514,280.4427,547.6478,273.92,544.5731" style="stroke:#A80036;stroke-width:1.0;"/><text fill="#000000" font-family="sans-serif" font-size="13" lengthAdjust="spacing" textLength="23" x="297.7719" y="622.0223">0..*</text><!--MD5=[41a1e86a3d12ba7d128e46deb70f1330]
reverse link ordering.Order to ordering.OrderItem--><path codeLine="71" d="M337.96,405.0531 C354.87,429.8431 372.88,456.2431 387.33,477.4231 " fill="none" id="ordering.Order-backto-ordering.OrderItem" style="stroke:#A80036;stroke-width:1.0;"/><polygon fill="#A80036" points="330.54,394.1731,330.6148,401.3838,337.2996,404.0881,337.2248,396.8774,330.54,394.1731" style="stroke:#A80036;stroke-width:1.0;"/><text fill="#000000" font-family="sans-serif" font-size="13" lengthAdjust="spacing" textLength="23" x="357.9279" y="466.4144">0..*</text><!--MD5=[2a2aabd539bb946dedd8a82ebdd48d0e]
link ordering.Order to shared_kernel.OrderStatus--><path codeLine="72" d="M192.94,394.1031 C159.2,427.4131 129,470.8131 129,519.4531 C129,519.4531 129,519.4531 129,962.9531 C129,1015.4931 165.2,1064.5631 197.15,1097.6531 " fill="none" id="ordering.Order-shared_kernel.OrderStatus" style="stroke:#A80036;stroke-width:1.0;stroke-dasharray:7.0,7.0;"/><text fill="#000000" font-family="sans-serif" font-size="13" lengthAdjust="spacing" textLength="30" x="130" y="724.02">uses</text><text fill="#000000" font-family="sans-serif" font-size="13" lengthAdjust="spacing" textLength="8" x="181.2105" y="1086.9197">1</text><!--MD5=[9b06634e7d1fc6c89e01e9fee03c4155]
reverse link ordering.OrderItem to ordering.MenuItem--><path codeLine="79" d="M386.05,575.1731 C374.89,595.1731 362.81,616.8431 353.97,632.7031 " fill="none" id="ordering.OrderItem-backto-ordering.MenuItem" style="stroke:#A80036;stroke-width:1.0;"/><polygon fill="#FFFFFF" points="392.48,563.6431,386.0653,566.9373,386.6389,574.1255,393.0536,570.8314,392.48,563.6431" style="stroke:#A80036;stroke-width:1.0;"/><text fill="#000000" font-family="sans-serif" font-size="13" lengthAdjust="spacing" textLength="8" x="348.1564" y="622.0471">1</text><!--MD5=[37dd939cd1f1a13891dd6637d674a1e5]
reverse link ordering.OrderItem to shared_kernel.Amount--><path codeLine="80" d="M437.1,576.1731 C454.14,623.4731 476.75,694.0931 486,757.9531 C492.25,801.0631 490.49,812.6331 486,855.9531 C483.33,881.7031 477.07,910.4431 471.91,931.3431 " fill="none" id="ordering.OrderItem-backto-shared_kernel.Amount" style="stroke:#A80036;stroke-width:1.0;"/><polygon fill="#A80036" points="432.56,563.7731,430.8664,570.7825,436.6852,575.0418,438.3788,568.0324,432.56,563.7731" style="stroke:#A80036;stroke-width:1.0;"/><text fill="#000000" font-family="sans-serif" font-size="13" lengthAdjust="spacing" textLength="8" x="464.7164" y="920.5837">1</text><!--MD5=[a075b0f8c9613c11e605ef40705e42d5]
reverse link ordering.MenuItem to ordering.FoodBeverage--><path codeLine="82" d="M356.98,693.0031 C366.07,712.9431 377.43,737.8631 386.59,757.9531 " fill="none" id="ordering.MenuItem-backto-ordering.FoodBeverage" style="stroke:#A80036;stroke-width:1.0;"/><polygon fill="#A80036" points="351.52,681.0231,350.373,688.1424,356.5035,691.9394,357.6505,684.8201,351.52,681.0231" style="stroke:#A80036;stroke-width:1.0;"/><text fill="#000000" font-family="sans-serif" font-size="13" lengthAdjust="spacing" textLength="23" x="358.4441" y="746.8636">1..*</text><!--MD5=[7cc19f8f58ddbfd02d84efeaf8169ffd]
reverse link ordering.MenuItem to ordering.PricingOffer--><path codeLine="83" d="M318.25,691.9531 C303.41,714.1331 284.23,742.8031 269.98,764.0931 " fill="none" id="ordering.MenuItem-backto-ordering.PricingOffer" style="stroke:#A80036;stroke-width:1.0;"/><polygon fill="#A80036" points="325.56,681.0231,318.8977,683.7824,318.8823,690.9935,325.5446,688.2342,325.56,681.0231" style="stroke:#A80036;stroke-width:1.0;"/><text fill="#000000" font-family="sans-serif" font-size="13" lengthAdjust="spacing" textLength="23" x="248.729" y="753.2821">1..*</text><!--MD5=[b7c9a28e9485f08419a4966063ec9d7f]
reverse link ordering.PricingOffer to shared_kernel.Amount--><path codeLine="93" d="M288.88,834.2831 C298.49,842.2831 309.15,850.0731 320,855.9531 C343.61,868.7531 354.97,859.1231 378,872.9531 C403.09,888.0231 425.95,912.1631 441.79,931.3531 " fill="none" id="ordering.PricingOffer-backto-shared_kernel.Amount" style="stroke:#A80036;stroke-width:1.0;"/><polygon fill="#A80036" points="278.91,825.5931,280.8044,832.5509,287.9556,833.4784,286.0612,826.5205,278.91,825.5931" style="stroke:#A80036;stroke-width:1.0;"/><text fill="#000000" font-family="sans-serif" font-size="13" lengthAdjust="spacing" textLength="8" x="428.3842" y="920.5957">1</text><!--MD5=[4588ff7fbad9cf11c6945812a1da4237]
reverse link ordering.PricingOffer to shared_kernel.CurrencyValue--><path codeLine="94" d="M286.37,834.6031 C296.42,843.0631 307.92,850.9731 320,855.9531 C367.59,875.5731 504.33,851.2531 551,872.9531 C578.31,885.6531 601.63,911.0531 617.06,931.3231 " fill="none" id="ordering.PricingOffer-backto-shared_kernel.CurrencyValue" style="stroke:#A80036;stroke-width:1.0;"/><polygon fill="#A80036" points="276.45,825.6931,278.2413,832.6782,285.378,833.7112,283.5867,826.7262,276.45,825.6931" style="stroke:#A80036;stroke-width:1.0;"/><text fill="#000000" font-family="sans-serif" font-size="13" lengthAdjust="spacing" textLength="8" x="604.1224" y="920.5595">1</text><!--MD5=[2f5fac91a4b933d33e9e13019e28f3af]
reverse link payment.Bill to ordering.Order--><path codeLine="107" d="M683.77,177.9331 C647.75,189.1431 610.66,201.0931 576,212.9531 C537.39,226.1631 496.25,241.2031 457.4,255.8531 " fill="none" id="payment.Bill-backto-ordering.Order" style="stroke:#A80036;stroke-width:1.0;"/><polygon fill="#FFFFFF" points="696.45,173.9931,689.5334,171.9535,684.9904,177.5536,691.907,179.5933,696.45,173.9931" style="stroke:#A80036;stroke-width:1.0;"/><text fill="#000000" font-family="sans-serif" font-size="13" lengthAdjust="spacing" textLength="8" x="466.8694" y="245.0464">1</text><!--MD5=[de2d049671b854c9560776781924bc99]
reverse link payment.Bill to shared_kernel.CurrencyValue--><path codeLine="108" d="M884,187.2631 C884,227.1231 884,278.3831 884,323.9531 C884,323.9531 884,323.9531 884,795.9531 C884,874.8731 788.24,827.1131 724,872.9531 C700.57,889.6731 677.83,913.0031 661.48,931.4431 " fill="none" id="payment.Bill-backto-shared_kernel.CurrencyValue" style="stroke:#A80036;stroke-width:1.0;"/><polygon fill="#FFFFFF" points="884,174.2031,880,180.2031,884,186.2031,888,180.2031,884,174.2031" style="stroke:#A80036;stroke-width:1.0;"/><text fill="#000000" font-family="sans-serif" font-size="13" lengthAdjust="spacing" textLength="8" x="657.96" y="920.2312">1</text><!--MD5=[f17f35420bf18cba5f35a8185bfe911c]
reverse link payment.Bill to payment.Payment--><path codeLine="109" d="M842.84,185.3831 C818.24,225.1031 788.5,273.1031 771.27,300.9231 " fill="none" id="payment.Bill-backto-payment.Payment" style="stroke:#A80036;stroke-width:1.0;"/><polygon fill="#A80036" points="849.8,174.1631,843.2412,177.1602,843.4851,184.3671,850.0439,181.3701,849.8,174.1631" style="stroke:#A80036;stroke-width:1.0;"/><text fill="#000000" font-family="sans-serif" font-size="13" lengthAdjust="spacing" textLength="23" x="748.9798" y="289.9275">1..*</text><!--MD5=[6122184bdc57417307d9b300a4d83181]
link payment.Bill to shared_kernel.BillStatus--><path codeLine="110" d="M922.09,174.1131 C945.87,213.9031 972,269.9231 972,323.9531 C972,323.9531 972,323.9531 972,962.9531 C972,1018.4531 931.08,1069.4931 897.02,1102.3631 " fill="none" id="payment.Bill-shared_kernel.BillStatus" style="stroke:#A80036;stroke-width:1.0;stroke-dasharray:7.0,7.0;"/><text fill="#000000" font-family="sans-serif" font-size="13" lengthAdjust="spacing" textLength="30" x="973" y="661.52">uses</text><text fill="#000000" font-family="sans-serif" font-size="13" lengthAdjust="spacing" textLength="8" x="905.1389" y="1091.7731">1</text><!--MD5=[ef725041044c92724bbd40cf79386995]
reverse link payment.Payment to shared_kernel.CurrencyValue--><path codeLine="114" d="M719.17,357.8231 C681.74,393.1231 630,453.7931 630,519.4531 C630,519.4531 630,519.4531 630,795.9531 C630,843.2631 632.91,898.1331 634.98,931.1631 " fill="none" id="payment.Payment-backto-shared_kernel.CurrencyValue" style="stroke:#A80036;stroke-width:1.0;"/><polygon fill="#FFFFFF" points="728.81,348.9731,721.6841,350.0784,719.9636,357.0812,727.0895,355.976,728.81,348.9731" style="stroke:#A80036;stroke-width:1.0;"/><text fill="#000000" font-family="sans-serif" font-size="13" lengthAdjust="spacing" textLength="8" x="625.7384" y="920.3665">1</text><!--MD5=[f9adcfa66be00c72094b13214578851a]
link payment.Payment to payment.PAYMENT_METHOD--><path codeLine="115" d="M757,349.2931 C757,379.2431 757,431.9731 757,470.8231 " fill="none" id="payment.Payment-payment.PAYMENT_METHOD" style="stroke:#A80036;stroke-width:1.0;stroke-dasharray:7.0,7.0;"/><text fill="#000000" font-family="sans-serif" font-size="13" lengthAdjust="spacing" textLength="30" x="758" y="437.02">uses</text><text fill="#000000" font-family="sans-serif" font-size="13" lengthAdjust="spacing" textLength="8" x="748.4375" y="459.8501">1</text><!--MD5=[162c57ba2c76522a4de055e7f172cc08]
@startuml

title Coffee Shop Model

namespace shared_kernel {

  class Amount {
    +quanity: BigDecimal
  }
  Amount .. "1" MeasurementUnit: uses

  enum MeasurementUnit {
    PIECES
    KILOGRAMS
    POUNDS
    LITRES
    FLUID_OUNCE
  }

  class CurrencyValue {
    +quanity: BigDecimal
  }
  CurrencyValue .. "1" Currency: uses

  enum Currency {
    US_DOLLAR
    MEXICAN_PESO
    BITCOIN
  }

  class OrderStatusUpdated <<event>> {
    +orderId: integer
    +dateTime: ZonedDateTime
  }
  OrderStatusUpdated .. "1" OrderStatus: uses

  enum OrderStatus {
    RECEIVING
    SUBMITTED
    CANCELLED
  }

  class BillStatusUpdated <<event>> {
    +billId: integer
    +orderId: integer
    +dateTime: ZonedDateTime
  }
  BillStatusUpdated .. "1" BillStatus: uses

  enum BillStatus {
    RECEIVING
    PAID
    CANCELLED
  }

}

namespace ordering {

  class Menu {}
  Menu o- - "0..*" MenuItem

  class Order {
    +id: integer
    +customerName: String
    void addOrderItem(menuItem: MenuItem, quantity: integer, specialInstructions: String)
    void removeOrderItem(OrderItem orderItem)
    void submitForPayment()
    void cancel()
    CurrencyValue calculatePrice()
  }
  Order *- - "0..*" OrderItem
  Order .. "1" shared_kernel.OrderStatus: uses

  class OrderItem {
    +id: integer
    +specialInstructions: String
    +quantity: integer
  }
  OrderItem o- - "1" MenuItem
  OrderItem *- - "1" shared_kernel.Amount

  MenuItem *- - "1..*" FoodBeverage
  MenuItem *- - "1..*" PricingOffer

    class FoodBeverage {
    +name: String
    +description: String
  }

  class PricingOffer {
    +name: String
  }
  PricingOffer *- - "1" shared_kernel.Amount
  PricingOffer *- - "1" shared_kernel.CurrencyValue

}

namespace payment {

  class Bill {
    +id: integer
    void addPayment(currencyValue: shared_kernel.CurrencyValue, paymentMethod: PAYMENT_METHOD)
    void removePayment(payment: Payment)
    void processPayments()
    void cancel()
  }
  Bill o- - "1" ordering.Order
  Bill o- - "1" shared_kernel.CurrencyValue
  Bill *- - "1..*" Payment
  Bill .. "1" shared_kernel.BillStatus: uses

  class Payment {
  }
  Payment o- - "1" shared_kernel.CurrencyValue
  Payment .. "1" PAYMENT_METHOD: uses

  enum PAYMENT_METHOD {
    CASH
    VISA
    PAYPAL
    STORE_CREDIT
  }

}

namespace kitchen {

  note "TODO food and beverage order preparation" as n1

}

namespace supplier {

  note "TODO supplier" as n1

}

namespace management {

  note "TODO management" as n1

}

@enduml

PlantUML version 1.2021.7(Sun May 23 08:40:07 EDT 2021)
(GPL source distribution)
Java Runtime: OpenJDK Runtime Environment
JVM: OpenJDK 64-Bit Server VM
Default Encoding: UTF-8
Language: en
Country: null
--></g></svg>